<svg width="22" height="22" viewBox="0 0 22 22" fill="none" xmlns="http://www.w3.org/2000/svg">
<path d="M18.2488 5.52283H17.7662V9.27403C17.7662 12.0532 15.5052 14.3143 12.726 14.3143H5.52283V14.797C5.52283 16.8654 7.20566 18.5481 9.27403 18.5481H16.9799L20.9429 21.8506C21.0609 21.949 21.2076 22 21.3556 22C21.71 22 22 21.7125 22 21.3555V9.27403C22 7.20247 20.3241 5.52283 18.2488 5.52283Z" fill="white"/>
<path d="M16.4772 9.27403V3.75121C16.4772 1.67595 14.7977 0 12.726 0H3.75121C1.67595 0 0 1.67947 0 3.75121V15.8326C0 16.1895 0.290039 16.4772 0.644363 16.4772C0.792404 16.4772 0.939102 16.4261 1.0571 16.3276L5.02013 13.0252H12.726C14.7943 13.0252 16.4772 11.3426 16.4772 9.27403ZM8.23859 10.2638C7.88275 10.2638 7.59406 9.97513 7.59406 9.61929C7.59406 9.26346 7.88275 8.97476 8.23859 8.97476C8.59425 8.97476 8.88312 9.26346 8.88312 9.61929C8.88312 9.97513 8.59425 10.2638 8.23859 10.2638ZM8.88312 7.41328V7.54823C8.88312 7.90407 8.59442 8.19276 8.23859 8.19276C7.88258 8.19276 7.59406 7.90407 7.59406 7.54823V6.85788C7.59406 6.50188 7.88258 6.21335 8.23859 6.21335C8.83478 6.21335 9.31985 5.7281 9.31985 5.13191C9.31985 4.53555 8.83478 4.05048 8.23859 4.05048C7.94922 4.05048 7.67781 4.16293 7.47371 4.36703C7.26961 4.57114 7.15715 4.84254 7.15715 5.13107C7.15715 5.48708 6.86862 5.77611 6.51262 5.77611C6.15662 5.77611 5.86809 5.48775 5.86809 5.13191V5.13107C5.86809 4.49829 6.11465 3.90311 6.56213 3.45563C7.00978 3.00798 7.6048 2.76141 8.23775 2.76141C9.54561 2.76141 10.6089 3.82489 10.6089 5.13191C10.6089 6.2157 9.87794 7.13197 8.88312 7.41328Z" fill="white"/>
</svg>
