<svg width="129" height="58" viewBox="0 0 129 58" fill="none" xmlns="http://www.w3.org/2000/svg">
<rect width="58" height="58" rx="14" fill="#240A1C"/>
<path d="M12.9638 30.9326V24.6239C11.7414 25.4814 8.65463 27.1048 6.08745 26.739V21.6515C8.20767 21.6705 12.5742 20.3024 13.0784 14.6776H18.2082V30.8984L12.9638 30.9326Z" fill="#DB184B"/>
<path d="M49.0362 30.9668V24.6239C50.2586 25.4814 53.3454 27.1048 55.9125 26.739V21.6515C53.7923 21.6705 49.4258 20.3024 48.9216 14.6776H43.7918V30.9326L49.0362 30.9668Z" fill="#DB184B"/>
<path d="M23.9326 35.5264C23.9326 36.6974 23.0229 37.6466 21.9007 37.6466C20.7786 37.6466 19.8689 36.6974 19.8689 35.5264C19.8689 34.3554 20.7786 33.4062 21.9007 33.4062C23.0229 33.4062 23.9326 34.3554 23.9326 35.5264Z" fill="#DB184B"/>
<path d="M38.0674 35.5264C38.0674 36.6974 38.9771 37.6466 40.0993 37.6466C41.2214 37.6466 42.1311 36.6974 42.1311 35.5264C42.1311 34.3554 41.2214 33.4062 40.0993 33.4062C38.9771 33.4062 38.0674 34.3554 38.0674 35.5264Z" fill="#DB184B"/>
<path d="M29.1104 28.2284C30.4194 29.5374 31.3422 31.1819 31.7776 32.9811C32.213 34.7804 32.144 36.6648 31.5783 38.4274C31.0126 40.19 29.972 41.7626 28.5709 42.9724C27.1697 44.1823 25.4622 44.9825 23.636 45.2852C21.8097 45.5879 19.9353 45.3814 18.2188 44.6884C16.5022 43.9954 15.0099 42.8426 13.9057 41.3568C12.8015 39.871 12.1283 38.1096 11.9598 36.2661C11.7914 34.4226 12.1343 32.5683 12.951 30.907L17.6396 33.2117C17.2466 34.0112 17.0815 34.9035 17.1626 35.7907C17.2437 36.6779 17.5677 37.5255 18.099 38.2406C18.6304 38.9556 19.3486 39.5104 20.1747 39.8439C21.0007 40.1774 21.9028 40.2768 22.7816 40.1311C23.6605 39.9854 24.4822 39.6003 25.1565 39.0181C25.8308 38.4359 26.3316 37.6791 26.6038 36.8308C26.8761 35.9826 26.9092 35.0757 26.6997 34.2099C26.4902 33.344 26.0461 32.5526 25.4161 31.9227L29.1104 28.2284Z" fill="#DB184B"/>
<path d="M17.6396 33.2117L12.951 30.907H18.2188C18.3146 31.8759 17.8726 32.8472 17.6396 33.2117Z" fill="#DB184B"/>
<path d="M32.8896 28.2284C31.5807 29.5374 30.6578 31.1819 30.2224 32.9811C29.787 34.7804 29.856 36.6648 30.4217 38.4274C30.9874 40.19 32.028 41.7626 33.4291 42.9724C34.8303 44.1823 36.5378 44.9825 38.364 45.2852C40.1903 45.5879 42.0647 45.3814 43.7812 44.6884C45.4978 43.9954 46.9901 42.8426 48.0943 41.3568C49.1985 39.871 49.8718 38.1096 50.0402 36.2661C50.2086 34.4226 49.8657 32.5683 49.0491 30.907L44.3604 33.2117C44.7534 34.0112 44.9185 34.9035 44.8374 35.7907C44.7564 36.6779 44.4323 37.5255 43.901 38.2406C43.3696 38.9556 42.6514 39.5104 41.8253 39.8439C40.9993 40.1774 40.0972 40.2768 39.2184 40.1311C38.3395 39.9854 37.5178 39.6003 36.8435 39.0181C36.1692 38.4359 35.6684 37.6791 35.3962 36.8308C35.124 35.9826 35.0908 35.0757 35.3003 34.2099C35.5098 33.344 35.9539 32.5526 36.5839 31.9227L32.8896 28.2284Z" fill="#DB184B"/>
<path d="M44.3604 33.2117L49.0491 30.907H43.7812C43.6854 31.8759 44.1275 32.8472 44.3604 33.2117Z" fill="#DB184B"/>
<path d="M10.9638 28.9326V22.6239C9.74136 23.4814 6.65463 25.1048 4.08745 24.739V19.6515C6.20767 19.6705 10.5742 18.3024 11.0784 12.6776H16.2082V28.8984L10.9638 28.9326Z" fill="#4CFFFD"/>
<path d="M47.0362 28.9668V22.6239C48.2586 23.4814 51.3454 25.1048 53.9125 24.739V19.6515C51.7923 19.6705 47.4258 18.3024 46.9216 12.6776H41.7918V28.9326L47.0362 28.9668Z" fill="#4CFFFD"/>
<path d="M21.9326 33.5264C21.9326 34.6974 21.0229 35.6466 19.9007 35.6466C18.7786 35.6466 17.8689 34.6974 17.8689 33.5264C17.8689 32.3554 18.7786 31.4062 19.9007 31.4062C21.0229 31.4062 21.9326 32.3554 21.9326 33.5264Z" fill="#4CFFFD"/>
<path d="M36.0674 33.5264C36.0674 34.6974 36.9771 35.6466 38.0993 35.6466C39.2214 35.6466 40.1311 34.6974 40.1311 33.5264C40.1311 32.3554 39.2214 31.4062 38.0993 31.4062C36.9771 31.4062 36.0674 32.3554 36.0674 33.5264Z" fill="#4CFFFD"/>
<path d="M27.1104 26.2284C28.4194 27.5374 29.3422 29.1819 29.7776 30.9811C30.213 32.7804 30.144 34.6648 29.5783 36.4274C29.0126 38.19 27.972 39.7626 26.5709 40.9724C25.1697 42.1823 23.4622 42.9825 21.636 43.2852C19.8097 43.5879 17.9353 43.3814 16.2188 42.6884C14.5022 41.9954 13.0099 40.8426 11.9057 39.3568C10.8015 37.871 10.1283 36.1096 9.95983 34.2661C9.79139 32.4226 10.1343 30.5683 10.951 28.907L15.6396 31.2117C15.2466 32.0112 15.0815 32.9035 15.1626 33.7907C15.2437 34.6779 15.5677 35.5255 16.099 36.2406C16.6304 36.9556 17.3486 37.5104 18.1747 37.8439C19.0007 38.1774 19.9028 38.2768 20.7816 38.1311C21.6605 37.9854 22.4822 37.6003 23.1565 37.0181C23.8308 36.4359 24.3316 35.6791 24.6038 34.8308C24.8761 33.9826 24.9092 33.0757 24.6997 32.2099C24.4902 31.344 24.0461 30.5526 23.4161 29.9227L27.1104 26.2284Z" fill="#4CFFFD"/>
<path d="M15.6396 31.2117L10.951 28.907H16.2188C16.3146 29.8759 15.8726 30.8472 15.6396 31.2117Z" fill="#4CFFFD"/>
<path d="M30.8896 26.2284C29.5807 27.5374 28.6578 29.1819 28.2224 30.9811C27.787 32.7804 27.856 34.6648 28.4217 36.4274C28.9874 38.19 30.028 39.7626 31.4291 40.9724C32.8303 42.1823 34.5378 42.9825 36.364 43.2852C38.1903 43.5879 40.0647 43.3814 41.7812 42.6884C43.4978 41.9954 44.9901 40.8426 46.0943 39.3568C47.1985 37.871 47.8718 36.1096 48.0402 34.2661C48.2086 32.4226 47.8657 30.5683 47.0491 28.907L42.3604 31.2117C42.7534 32.0112 42.9185 32.9035 42.8374 33.7907C42.7564 34.6779 42.4323 35.5255 41.901 36.2406C41.3696 36.9556 40.6514 37.5104 39.8253 37.8439C38.9993 38.1774 38.0972 38.2768 37.2184 38.1311C36.3395 37.9854 35.5178 37.6003 34.8435 37.0181C34.1692 36.4359 33.6684 35.6791 33.3962 34.8308C33.124 33.9826 33.0908 33.0757 33.3003 32.2099C33.5098 31.344 33.9539 30.5526 34.5839 29.9227L30.8896 26.2284Z" fill="#4CFFFD"/>
<path d="M42.3604 31.2117L47.0491 28.907H41.7812C41.6854 29.8759 42.1275 30.8472 42.3604 31.2117Z" fill="#4CFFFD"/>
<mask id="mask0" mask-type="alpha" maskUnits="userSpaceOnUse" x="4" y="12" width="50" height="32">
<path d="M10.9638 28.9326V22.6239C9.74136 23.4814 6.65463 25.1048 4.08745 24.739V19.6515C6.20767 19.6705 10.5742 18.3024 11.0784 12.6776H16.2082V28.8984L10.9638 28.9326Z" fill="#DB184B"/>
<path d="M47.0362 28.9668V22.6239C48.2586 23.4814 51.3454 25.1048 53.9125 24.739V19.6515C51.7923 19.6705 47.4258 18.3024 46.9216 12.6776H41.7918V28.9326L47.0362 28.9668Z" fill="#DB184B"/>
<path d="M21.9326 33.5264C21.9326 34.6974 21.0229 35.6466 19.9007 35.6466C18.7786 35.6466 17.8689 34.6974 17.8689 33.5264C17.8689 32.3554 18.7786 31.4062 19.9007 31.4062C21.0229 31.4062 21.9326 32.3554 21.9326 33.5264Z" fill="#DB184B"/>
<path d="M36.0674 33.5264C36.0674 34.6974 36.9771 35.6466 38.0993 35.6466C39.2214 35.6466 40.1311 34.6974 40.1311 33.5264C40.1311 32.3554 39.2214 31.4062 38.0993 31.4062C36.9771 31.4062 36.0674 32.3554 36.0674 33.5264Z" fill="#DB184B"/>
<path d="M27.1104 26.2284C28.4194 27.5374 29.3422 29.1819 29.7776 30.9811C30.213 32.7804 30.144 34.6648 29.5783 36.4274C29.0126 38.19 27.972 39.7626 26.5709 40.9724C25.1697 42.1823 23.4622 42.9825 21.636 43.2852C19.8097 43.5879 17.9353 43.3814 16.2188 42.6884C14.5022 41.9954 13.0099 40.8426 11.9057 39.3568C10.8015 37.871 10.1283 36.1096 9.95983 34.2661C9.79139 32.4226 10.1343 30.5683 10.951 28.907L15.6396 31.2117C15.2466 32.0112 15.0815 32.9035 15.1626 33.7907C15.2437 34.6779 15.5677 35.5255 16.099 36.2406C16.6304 36.9556 17.3486 37.5104 18.1747 37.8439C19.0007 38.1774 19.9028 38.2768 20.7816 38.1311C21.6605 37.9854 22.4822 37.6003 23.1565 37.0181C23.8308 36.4359 24.3316 35.6791 24.6038 34.8308C24.8761 33.9826 24.9092 33.0757 24.6997 32.2099C24.4902 31.344 24.0461 30.5526 23.4161 29.9227L27.1104 26.2284Z" fill="#DB184B"/>
<path d="M15.6396 31.2117L10.951 28.907H16.2188C16.3146 29.8759 15.8726 30.8472 15.6396 31.2117Z" fill="#DB184B"/>
<path d="M30.8896 26.2284C29.5807 27.5374 28.6578 29.1819 28.2224 30.9811C27.787 32.7804 27.856 34.6648 28.4217 36.4274C28.9874 38.19 30.028 39.7626 31.4291 40.9724C32.8303 42.1823 34.5378 42.9825 36.364 43.2852C38.1903 43.5879 40.0647 43.3814 41.7812 42.6884C43.4978 41.9954 44.9901 40.8426 46.0943 39.3568C47.1985 37.871 47.8718 36.1096 48.0402 34.2661C48.2086 32.4226 47.8657 30.5683 47.0491 28.907L42.3604 31.2117C42.7534 32.0112 42.9185 32.9035 42.8374 33.7907C42.7564 34.6779 42.4323 35.5255 41.901 36.2406C41.3696 36.9556 40.6514 37.5104 39.8253 37.8439C38.9993 38.1774 38.0972 38.2768 37.2184 38.1311C36.3395 37.9854 35.5178 37.6003 34.8435 37.0181C34.1692 36.4359 33.6684 35.6791 33.3962 34.8308C33.124 33.9826 33.0908 33.0757 33.3003 32.2099C33.5098 31.344 33.9539 30.5526 34.5839 29.9227L30.8896 26.2284Z" fill="#DB184B"/>
<path d="M42.3604 31.2117L47.0491 28.907H41.7812C41.6854 29.8759 42.1275 30.8472 42.3604 31.2117Z" fill="#DB184B"/>
</mask>
<g mask="url(#mask0)">
<path d="M12.9638 30.9326V24.6239C11.7414 25.4814 8.65463 27.1048 6.08745 26.739V21.6515C8.20767 21.6705 12.5742 20.3024 13.0784 14.6776H18.2082V30.8984L12.9638 30.9326Z" fill="white"/>
<path d="M49.0362 30.9668V24.6239C50.2586 25.4814 53.3454 27.1048 55.9125 26.739V21.6515C53.7923 21.6705 49.4258 20.3024 48.9216 14.6776H43.7918V30.9326L49.0362 30.9668Z" fill="white"/>
<path d="M23.9326 35.5264C23.9326 36.6974 23.0229 37.6466 21.9007 37.6466C20.7786 37.6466 19.8689 36.6974 19.8689 35.5264C19.8689 34.3554 20.7786 33.4062 21.9007 33.4062C23.0229 33.4062 23.9326 34.3554 23.9326 35.5264Z" fill="white"/>
<path d="M38.0674 35.5264C38.0674 36.6974 38.9771 37.6466 40.0993 37.6466C41.2214 37.6466 42.1311 36.6974 42.1311 35.5264C42.1311 34.3554 41.2214 33.4062 40.0993 33.4062C38.9771 33.4062 38.0674 34.3554 38.0674 35.5264Z" fill="white"/>
<path d="M29.1104 28.2284C30.4194 29.5374 31.3422 31.1819 31.7776 32.9811C32.213 34.7804 32.144 36.6648 31.5783 38.4274C31.0126 40.19 29.972 41.7626 28.5709 42.9724C27.1697 44.1823 25.4622 44.9825 23.636 45.2852C21.8097 45.5879 19.9353 45.3814 18.2188 44.6884C16.5022 43.9954 15.0099 42.8426 13.9057 41.3568C12.8015 39.871 12.1283 38.1096 11.9598 36.2661C11.7914 34.4226 12.1343 32.5683 12.951 30.907L17.6396 33.2117C17.2466 34.0112 17.0815 34.9035 17.1626 35.7907C17.2437 36.6779 17.5677 37.5255 18.099 38.2406C18.6304 38.9556 19.3486 39.5104 20.1747 39.8439C21.0007 40.1774 21.9028 40.2768 22.7816 40.1311C23.6605 39.9854 24.4822 39.6003 25.1565 39.0181C25.8308 38.4359 26.3316 37.6791 26.6038 36.8308C26.8761 35.9826 26.9092 35.0757 26.6997 34.2099C26.4902 33.344 26.0461 32.5526 25.4161 31.9227L29.1104 28.2284Z" fill="white"/>
<path d="M17.6396 33.2117L12.951 30.907H18.2188C18.3146 31.8759 17.8726 32.8472 17.6396 33.2117Z" fill="white"/>
<path d="M32.8896 28.2284C31.5807 29.5374 30.6578 31.1819 30.2224 32.9811C29.787 34.7804 29.856 36.6648 30.4217 38.4274C30.9874 40.19 32.028 41.7626 33.4291 42.9724C34.8303 44.1823 36.5378 44.9825 38.364 45.2852C40.1903 45.5879 42.0647 45.3814 43.7812 44.6884C45.4978 43.9954 46.9901 42.8426 48.0943 41.3568C49.1985 39.871 49.8718 38.1096 50.0402 36.2661C50.2086 34.4226 49.8657 32.5683 49.0491 30.907L44.3604 33.2117C44.7534 34.0112 44.9185 34.9035 44.8374 35.7907C44.7564 36.6779 44.4323 37.5255 43.901 38.2406C43.3696 38.9556 42.6514 39.5104 41.8253 39.8439C40.9993 40.1774 40.0972 40.2768 39.2184 40.1311C38.3395 39.9854 37.5178 39.6003 36.8435 39.0181C36.1692 38.4359 35.6684 37.6791 35.3962 36.8308C35.124 35.9826 35.0908 35.0757 35.3003 34.2099C35.5098 33.344 35.9539 32.5526 36.5839 31.9227L32.8896 28.2284Z" fill="white"/>
<path d="M44.3604 33.2117L49.0491 30.907H43.7812C43.6854 31.8759 44.1275 32.8472 44.3604 33.2117Z" fill="white"/>
</g>
<path d="M74.5657 17.592H69.6457V13.2H85.1497V17.592H80.2297V30H74.5657V17.592Z" fill="#DB184B"/>
<path d="M87.5808 13.2H93.2448V30H87.5808V13.2Z" fill="#DB184B"/>
<path d="M100.579 17.592H95.6594V13.2H111.163V17.592H106.243V30H100.579V17.592Z" fill="#DB184B"/>
<path d="M119.859 30.384C118.467 30.384 117.107 30.232 115.779 29.928C114.467 29.608 113.387 29.184 112.539 28.656L114.363 24.528C115.163 24.992 116.059 25.368 117.051 25.656C118.043 25.928 118.995 26.064 119.907 26.064C120.691 26.064 121.251 25.992 121.587 25.848C121.923 25.688 122.091 25.456 122.091 25.152C122.091 24.8 121.867 24.536 121.419 24.36C120.987 24.184 120.267 23.992 119.259 23.784C117.963 23.512 116.883 23.224 116.019 22.92C115.155 22.6 114.403 22.088 113.763 21.384C113.123 20.664 112.803 19.696 112.803 18.48C112.803 17.424 113.099 16.464 113.691 15.6C114.283 14.736 115.163 14.056 116.331 13.56C117.515 13.064 118.947 12.816 120.627 12.816C121.779 12.816 122.907 12.944 124.011 13.2C125.131 13.44 126.115 13.8 126.963 14.28L125.259 18.384C123.611 17.552 122.051 17.136 120.579 17.136C119.123 17.136 118.395 17.488 118.395 18.192C118.395 18.528 118.611 18.784 119.043 18.96C119.475 19.12 120.187 19.296 121.179 19.488C122.459 19.728 123.539 20.008 124.419 20.328C125.299 20.632 126.059 21.136 126.699 21.84C127.355 22.544 127.683 23.504 127.683 24.72C127.683 25.776 127.387 26.736 126.795 27.6C126.203 28.448 125.315 29.128 124.131 29.64C122.963 30.136 121.539 30.384 119.859 30.384Z" fill="#DB184B"/>
<path d="M76.9319 36.592H72.0119V32.2H87.5159V36.592H82.5959V49H76.9319V36.592Z" fill="#DB184B"/>
<path d="M98.5207 49.384C96.7127 49.384 95.0887 49.008 93.6487 48.256C92.2087 47.504 91.0807 46.464 90.2647 45.136C89.4487 43.792 89.0407 42.28 89.0407 40.6C89.0407 38.92 89.4487 37.416 90.2647 36.088C91.0807 34.744 92.2087 33.696 93.6487 32.944C95.0887 32.192 96.7127 31.816 98.5207 31.816C100.329 31.816 101.953 32.192 103.393 32.944C104.833 33.696 105.961 34.744 106.777 36.088C107.593 37.416 108.001 38.92 108.001 40.6C108.001 42.28 107.593 43.792 106.777 45.136C105.961 46.464 104.833 47.504 103.393 48.256C101.953 49.008 100.329 49.384 98.5207 49.384ZM98.5207 44.8C99.2247 44.8 99.8567 44.632 100.417 44.296C100.993 43.944 101.449 43.456 101.785 42.832C102.121 42.192 102.289 41.448 102.289 40.6C102.289 39.752 102.121 39.016 101.785 38.392C101.449 37.752 100.993 37.264 100.417 36.928C99.8567 36.576 99.2247 36.4 98.5207 36.4C97.8167 36.4 97.1767 36.576 96.6007 36.928C96.0407 37.264 95.5927 37.752 95.2567 38.392C94.9207 39.016 94.7527 39.752 94.7527 40.6C94.7527 41.448 94.9207 42.192 95.2567 42.832C95.5927 43.456 96.0407 43.944 96.6007 44.296C97.1767 44.632 97.8167 44.8 98.5207 44.8Z" fill="#DB184B"/>
<path d="M117.856 43.432L116.584 44.848V49H111.016V32.2H116.584V38.296L122.104 32.2H128.272L121.552 39.592L128.608 49H122.056L117.856 43.432Z" fill="#DB184B"/>
<path d="M72.5657 15.592H67.6457V11.2H83.1497V15.592H78.2297V28H72.5657V15.592Z" fill="#4CFFFD"/>
<path d="M85.5808 11.2H91.2448V28H85.5808V11.2Z" fill="#4CFFFD"/>
<path d="M98.5794 15.592H93.6594V11.2H109.163V15.592H104.243V28H98.5794V15.592Z" fill="#4CFFFD"/>
<path d="M117.859 28.384C116.467 28.384 115.107 28.232 113.779 27.928C112.467 27.608 111.387 27.184 110.539 26.656L112.363 22.528C113.163 22.992 114.059 23.368 115.051 23.656C116.043 23.928 116.995 24.064 117.907 24.064C118.691 24.064 119.251 23.992 119.587 23.848C119.923 23.688 120.091 23.456 120.091 23.152C120.091 22.8 119.867 22.536 119.419 22.36C118.987 22.184 118.267 21.992 117.259 21.784C115.963 21.512 114.883 21.224 114.019 20.92C113.155 20.6 112.403 20.088 111.763 19.384C111.123 18.664 110.803 17.696 110.803 16.48C110.803 15.424 111.099 14.464 111.691 13.6C112.283 12.736 113.163 12.056 114.331 11.56C115.515 11.064 116.947 10.816 118.627 10.816C119.779 10.816 120.907 10.944 122.011 11.2C123.131 11.44 124.115 11.8 124.963 12.28L123.259 16.384C121.611 15.552 120.051 15.136 118.579 15.136C117.123 15.136 116.395 15.488 116.395 16.192C116.395 16.528 116.611 16.784 117.043 16.96C117.475 17.12 118.187 17.296 119.179 17.488C120.459 17.728 121.539 18.008 122.419 18.328C123.299 18.632 124.059 19.136 124.699 19.84C125.355 20.544 125.683 21.504 125.683 22.72C125.683 23.776 125.387 24.736 124.795 25.6C124.203 26.448 123.315 27.128 122.131 27.64C120.963 28.136 119.539 28.384 117.859 28.384Z" fill="#4CFFFD"/>
<path d="M74.9319 34.592H70.0119V30.2H85.5159V34.592H80.5959V47H74.9319V34.592Z" fill="#4CFFFD"/>
<path d="M96.5207 47.384C94.7127 47.384 93.0887 47.008 91.6487 46.256C90.2087 45.504 89.0807 44.464 88.2647 43.136C87.4487 41.792 87.0407 40.28 87.0407 38.6C87.0407 36.92 87.4487 35.416 88.2647 34.088C89.0807 32.744 90.2087 31.696 91.6487 30.944C93.0887 30.192 94.7127 29.816 96.5207 29.816C98.3287 29.816 99.9527 30.192 101.393 30.944C102.833 31.696 103.961 32.744 104.777 34.088C105.593 35.416 106.001 36.92 106.001 38.6C106.001 40.28 105.593 41.792 104.777 43.136C103.961 44.464 102.833 45.504 101.393 46.256C99.9527 47.008 98.3287 47.384 96.5207 47.384ZM96.5207 42.8C97.2247 42.8 97.8567 42.632 98.4167 42.296C98.9927 41.944 99.4487 41.456 99.7847 40.832C100.121 40.192 100.289 39.448 100.289 38.6C100.289 37.752 100.121 37.016 99.7847 36.392C99.4487 35.752 98.9927 35.264 98.4167 34.928C97.8567 34.576 97.2247 34.4 96.5207 34.4C95.8167 34.4 95.1767 34.576 94.6007 34.928C94.0407 35.264 93.5927 35.752 93.2567 36.392C92.9207 37.016 92.7527 37.752 92.7527 38.6C92.7527 39.448 92.9207 40.192 93.2567 40.832C93.5927 41.456 94.0407 41.944 94.6007 42.296C95.1767 42.632 95.8167 42.8 96.5207 42.8Z" fill="#4CFFFD"/>
<path d="M115.856 41.432L114.584 42.848V47H109.016V30.2H114.584V36.296L120.104 30.2H126.272L119.552 37.592L126.608 47H120.056L115.856 41.432Z" fill="#4CFFFD"/>
<mask id="mask1" mask-type="alpha" maskUnits="userSpaceOnUse" x="67" y="10" width="60" height="38">
<path d="M72.5657 15.592H67.6457V11.2H83.1497V15.592H78.2297V28H72.5657V15.592Z" fill="#4CFFFD"/>
<path d="M85.5808 11.2H91.2448V28H85.5808V11.2Z" fill="#4CFFFD"/>
<path d="M98.5794 15.592H93.6594V11.2H109.163V15.592H104.243V28H98.5794V15.592Z" fill="#4CFFFD"/>
<path d="M117.859 28.384C116.467 28.384 115.107 28.232 113.779 27.928C112.467 27.608 111.387 27.184 110.539 26.656L112.363 22.528C113.163 22.992 114.059 23.368 115.051 23.656C116.043 23.928 116.995 24.064 117.907 24.064C118.691 24.064 119.251 23.992 119.587 23.848C119.923 23.688 120.091 23.456 120.091 23.152C120.091 22.8 119.867 22.536 119.419 22.36C118.987 22.184 118.267 21.992 117.259 21.784C115.963 21.512 114.883 21.224 114.019 20.92C113.155 20.6 112.403 20.088 111.763 19.384C111.123 18.664 110.803 17.696 110.803 16.48C110.803 15.424 111.099 14.464 111.691 13.6C112.283 12.736 113.163 12.056 114.331 11.56C115.515 11.064 116.947 10.816 118.627 10.816C119.779 10.816 120.907 10.944 122.011 11.2C123.131 11.44 124.115 11.8 124.963 12.28L123.259 16.384C121.611 15.552 120.051 15.136 118.579 15.136C117.123 15.136 116.395 15.488 116.395 16.192C116.395 16.528 116.611 16.784 117.043 16.96C117.475 17.12 118.187 17.296 119.179 17.488C120.459 17.728 121.539 18.008 122.419 18.328C123.299 18.632 124.059 19.136 124.699 19.84C125.355 20.544 125.683 21.504 125.683 22.72C125.683 23.776 125.387 24.736 124.795 25.6C124.203 26.448 123.315 27.128 122.131 27.64C120.963 28.136 119.539 28.384 117.859 28.384Z" fill="#4CFFFD"/>
<path d="M74.9319 34.592H70.0119V30.2H85.5159V34.592H80.5959V47H74.9319V34.592Z" fill="#4CFFFD"/>
<path d="M96.5207 47.384C94.7127 47.384 93.0887 47.008 91.6487 46.256C90.2087 45.504 89.0807 44.464 88.2647 43.136C87.4487 41.792 87.0407 40.28 87.0407 38.6C87.0407 36.92 87.4487 35.416 88.2647 34.088C89.0807 32.744 90.2087 31.696 91.6487 30.944C93.0887 30.192 94.7127 29.816 96.5207 29.816C98.3287 29.816 99.9527 30.192 101.393 30.944C102.833 31.696 103.961 32.744 104.777 34.088C105.593 35.416 106.001 36.92 106.001 38.6C106.001 40.28 105.593 41.792 104.777 43.136C103.961 44.464 102.833 45.504 101.393 46.256C99.9527 47.008 98.3287 47.384 96.5207 47.384ZM96.5207 42.8C97.2247 42.8 97.8567 42.632 98.4167 42.296C98.9927 41.944 99.4487 41.456 99.7847 40.832C100.121 40.192 100.289 39.448 100.289 38.6C100.289 37.752 100.121 37.016 99.7847 36.392C99.4487 35.752 98.9927 35.264 98.4167 34.928C97.8567 34.576 97.2247 34.4 96.5207 34.4C95.8167 34.4 95.1767 34.576 94.6007 34.928C94.0407 35.264 93.5927 35.752 93.2567 36.392C92.9207 37.016 92.7527 37.752 92.7527 38.6C92.7527 39.448 92.9207 40.192 93.2567 40.832C93.5927 41.456 94.0407 41.944 94.6007 42.296C95.1767 42.632 95.8167 42.8 96.5207 42.8Z" fill="#4CFFFD"/>
<path d="M115.856 41.432L114.584 42.848V47H109.016V30.2H114.584V36.296L120.104 30.2H126.272L119.552 37.592L126.608 47H120.056L115.856 41.432Z" fill="#4CFFFD"/>
</mask>
<g mask="url(#mask1)">
<path d="M74.5657 17.592H69.6457V13.2H85.1497V17.592H80.2297V30H74.5657V17.592Z" fill="white"/>
<path d="M87.5808 13.2H93.2448V30H87.5808V13.2Z" fill="white"/>
<path d="M100.579 17.592H95.6594V13.2H111.163V17.592H106.243V30H100.579V17.592Z" fill="white"/>
<path d="M119.859 30.384C118.467 30.384 117.107 30.232 115.779 29.928C114.467 29.608 113.387 29.184 112.539 28.656L114.363 24.528C115.163 24.992 116.059 25.368 117.051 25.656C118.043 25.928 118.995 26.064 119.907 26.064C120.691 26.064 121.251 25.992 121.587 25.848C121.923 25.688 122.091 25.456 122.091 25.152C122.091 24.8 121.867 24.536 121.419 24.36C120.987 24.184 120.267 23.992 119.259 23.784C117.963 23.512 116.883 23.224 116.019 22.92C115.155 22.6 114.403 22.088 113.763 21.384C113.123 20.664 112.803 19.696 112.803 18.48C112.803 17.424 113.099 16.464 113.691 15.6C114.283 14.736 115.163 14.056 116.331 13.56C117.515 13.064 118.947 12.816 120.627 12.816C121.779 12.816 122.907 12.944 124.011 13.2C125.131 13.44 126.115 13.8 126.963 14.28L125.259 18.384C123.611 17.552 122.051 17.136 120.579 17.136C119.123 17.136 118.395 17.488 118.395 18.192C118.395 18.528 118.611 18.784 119.043 18.96C119.475 19.12 120.187 19.296 121.179 19.488C122.459 19.728 123.539 20.008 124.419 20.328C125.299 20.632 126.059 21.136 126.699 21.84C127.355 22.544 127.683 23.504 127.683 24.72C127.683 25.776 127.387 26.736 126.795 27.6C126.203 28.448 125.315 29.128 124.131 29.64C122.963 30.136 121.539 30.384 119.859 30.384Z" fill="white"/>
<path d="M76.9319 36.592H72.0119V32.2H87.5159V36.592H82.5959V49H76.9319V36.592Z" fill="white"/>
<path d="M98.5207 49.384C96.7127 49.384 95.0887 49.008 93.6487 48.256C92.2087 47.504 91.0807 46.464 90.2647 45.136C89.4487 43.792 89.0407 42.28 89.0407 40.6C89.0407 38.92 89.4487 37.416 90.2647 36.088C91.0807 34.744 92.2087 33.696 93.6487 32.944C95.0887 32.192 96.7127 31.816 98.5207 31.816C100.329 31.816 101.953 32.192 103.393 32.944C104.833 33.696 105.961 34.744 106.777 36.088C107.593 37.416 108.001 38.92 108.001 40.6C108.001 42.28 107.593 43.792 106.777 45.136C105.961 46.464 104.833 47.504 103.393 48.256C101.953 49.008 100.329 49.384 98.5207 49.384ZM98.5207 44.8C99.2247 44.8 99.8567 44.632 100.417 44.296C100.993 43.944 101.449 43.456 101.785 42.832C102.121 42.192 102.289 41.448 102.289 40.6C102.289 39.752 102.121 39.016 101.785 38.392C101.449 37.752 100.993 37.264 100.417 36.928C99.8567 36.576 99.2247 36.4 98.5207 36.4C97.8167 36.4 97.1767 36.576 96.6007 36.928C96.0407 37.264 95.5927 37.752 95.2567 38.392C94.9207 39.016 94.7527 39.752 94.7527 40.6C94.7527 41.448 94.9207 42.192 95.2567 42.832C95.5927 43.456 96.0407 43.944 96.6007 44.296C97.1767 44.632 97.8167 44.8 98.5207 44.8Z" fill="white"/>
<path d="M117.856 43.432L116.584 44.848V49H111.016V32.2H116.584V38.296L122.104 32.2H128.272L121.552 39.592L128.608 49H122.056L117.856 43.432Z" fill="white"/>
</g>
</svg>
