<svg width="46" height="60" viewBox="0 0 46 60" fill="none" xmlns="http://www.w3.org/2000/svg">
<path d="M44.8333 25H41.3333V20.3333C41.3333 11.327 34.0064 4 25 4C15.9936 4 8.6667 11.327 8.6667 20.3333V25H5.1667C4.52183 25 4 25.5218 4 26.1667V55.3334C4 57.9071 6.09289 60 8.6667 60H41.3334C43.9071 60 46 57.9071 46 55.3333V26.1667C46 25.5218 45.4782 25 44.8333 25ZM28.4932 49.3713C28.5296 49.7005 28.4238 50.0309 28.2027 50.2782C27.9817 50.5254 27.6649 50.6667 27.3334 50.6667H22.6667C22.3352 50.6667 22.0184 50.5254 21.7974 50.2782C21.5763 50.031 21.4704 49.7006 21.5069 49.3713L22.2429 42.753C21.0477 41.8837 20.3334 40.5085 20.3334 39C20.3334 36.4263 22.4263 34.3333 25.0001 34.3333C27.5739 34.3333 29.6668 36.4262 29.6668 39C29.6668 40.5085 28.9525 41.8837 27.7573 42.753L28.4932 49.3713ZM34.3333 25H15.6667V20.3333C15.6667 15.187 19.8537 11 25 11C30.1463 11 34.3333 15.187 34.3333 20.3333V25Z" fill="#DB184B"/>
<path d="M40.8333 21H37.3333V16.3333C37.3333 7.32703 30.0064 0 21 0C11.9936 0 4.6667 7.32703 4.6667 16.3333V21H1.1667C0.521828 21 0 21.5218 0 22.1667V51.3334C0 53.9071 2.09289 56 4.6667 56H37.3334C39.9071 56 42 53.9071 42 51.3333V22.1667C42 21.5218 41.4782 21 40.8333 21ZM24.4932 45.3713C24.5296 45.7005 24.4238 46.0309 24.2027 46.2782C23.9817 46.5254 23.6649 46.6667 23.3334 46.6667H18.6667C18.3352 46.6667 18.0184 46.5254 17.7974 46.2782C17.5763 46.031 17.4704 45.7006 17.5069 45.3713L18.2429 38.753C17.0477 37.8837 16.3334 36.5085 16.3334 35C16.3334 32.4263 18.4263 30.3333 21.0001 30.3333C23.5739 30.3333 25.6668 32.4262 25.6668 35C25.6668 36.5085 24.9525 37.8837 23.7573 38.753L24.4932 45.3713ZM30.3333 21H11.6667V16.3333C11.6667 11.187 15.8537 7 21 7C26.1463 7 30.3333 11.187 30.3333 16.3333V21Z" fill="#4CFFFD"/>
<mask id="mask0" mask-type="alpha" maskUnits="userSpaceOnUse" x="0" y="0" width="42" height="56">
<path d="M40.8333 21H37.3333V16.3333C37.3333 7.32703 30.0064 0 21 0C11.9936 0 4.6667 7.32703 4.6667 16.3333V21H1.1667C0.521828 21 0 21.5218 0 22.1667V51.3334C0 53.9071 2.09289 56 4.6667 56H37.3334C39.9071 56 42 53.9071 42 51.3333V22.1667C42 21.5218 41.4782 21 40.8333 21ZM24.4932 45.3713C24.5296 45.7005 24.4238 46.0309 24.2027 46.2782C23.9817 46.5254 23.6649 46.6667 23.3334 46.6667H18.6667C18.3352 46.6667 18.0184 46.5254 17.7974 46.2782C17.5763 46.031 17.4704 45.7006 17.5069 45.3713L18.2429 38.753C17.0477 37.8837 16.3334 36.5085 16.3334 35C16.3334 32.4263 18.4263 30.3333 21.0001 30.3333C23.5739 30.3333 25.6668 32.4262 25.6668 35C25.6668 36.5085 24.9525 37.8837 23.7573 38.753L24.4932 45.3713ZM30.3333 21H11.6667V16.3333C11.6667 11.187 15.8537 7 21 7C26.1463 7 30.3333 11.187 30.3333 16.3333V21Z" fill="white"/>
</mask>
<g mask="url(#mask0)">
<path d="M44.8333 25H41.3333V20.3333C41.3333 11.327 34.0064 4 25 4C15.9936 4 8.6667 11.327 8.6667 20.3333V25H5.1667C4.52183 25 4 25.5218 4 26.1667V55.3334C4 57.9071 6.09289 60 8.6667 60H41.3334C43.9071 60 46 57.9071 46 55.3333V26.1667C46 25.5218 45.4782 25 44.8333 25ZM28.4932 49.3713C28.5296 49.7005 28.4238 50.0309 28.2027 50.2782C27.9817 50.5254 27.6649 50.6667 27.3334 50.6667H22.6667C22.3352 50.6667 22.0184 50.5254 21.7974 50.2782C21.5763 50.031 21.4704 49.7006 21.5069 49.3713L22.2429 42.753C21.0477 41.8837 20.3334 40.5085 20.3334 39C20.3334 36.4263 22.4263 34.3333 25.0001 34.3333C27.5739 34.3333 29.6668 36.4262 29.6668 39C29.6668 40.5085 28.9525 41.8837 27.7573 42.753L28.4932 49.3713ZM34.3333 25H15.6667V20.3333C15.6667 15.187 19.8537 11 25 11C30.1463 11 34.3333 15.187 34.3333 20.3333V25Z" fill="white"/>
</g>
</svg>
