<svg width="59" height="53" viewBox="0 0 59 53" fill="none" xmlns="http://www.w3.org/2000/svg">
<path d="M58.6794 20.6613C58.4652 20.4426 58.1907 20.3333 57.8554 20.3333H42.1C44.3199 20.3333 46.2118 19.5378 47.7759 17.9455C49.3391 16.3534 50.1211 14.4272 50.1211 12.1667C50.1211 9.90616 49.3391 7.97996 47.7759 6.38782C46.2118 4.79607 44.3199 4 42.1 4C39.5458 4 37.5402 4.93564 36.0842 6.80706L31.5004 12.8227L26.9176 6.80706C25.4611 4.93564 23.456 4 20.9015 4C18.6812 4 16.7891 4.79556 15.2259 6.38782C13.6625 7.97996 12.8805 9.90616 12.8805 12.1667C12.8805 14.4272 13.662 16.3539 15.2259 17.9455C16.7895 19.5373 18.6812 20.3333 20.9015 20.3333H5.14572C4.81122 20.3333 4.53692 20.4426 4.32208 20.6613C4.10749 20.8803 4 21.1599 4 21.5V33.1674C4 33.5073 4.10711 33.7871 4.32208 34.0054C4.5368 34.2239 4.8116 34.3331 5.14572 34.3331H8.58349V49.5006C8.58349 50.4734 8.91774 51.2993 9.58623 51.9792C10.2542 52.6601 11.0659 53 12.0211 53H50.9804C51.9358 53 52.747 52.6601 53.4157 51.9792C54.0835 51.2988 54.4184 50.4725 54.4184 49.5006V34.3331H57.8545C58.1893 34.3331 58.464 34.2239 58.6786 34.0054C58.8931 33.787 59 33.5073 59 33.1674V21.5C59.0005 21.1599 58.894 20.8803 58.6794 20.6613ZM39.6296 9.79672C40.2501 9.04356 41.0734 8.66685 42.1 8.66685C43.0554 8.66685 43.867 9.00678 44.5354 9.68741C45.2031 10.3677 45.5371 11.1942 45.5371 12.1665C45.5371 13.1388 45.2023 13.9654 44.5354 14.6457C43.8666 15.3263 43.0554 15.6662 42.1 15.6662H35.1528L39.6296 9.79672ZM20.9012 15.6664C19.9462 15.6664 19.135 15.3263 18.4655 14.6458C17.7974 13.9655 17.463 13.139 17.463 12.1667C17.463 11.1944 17.797 10.3682 18.4655 9.68754C19.134 9.00691 19.9458 8.66698 20.9008 8.66698C21.9277 8.66698 22.7511 9.04318 23.3718 9.79685L27.8838 15.6665L20.9012 15.6664ZM37.2303 46.4377C37.2303 47.0456 37.0147 47.5132 36.5855 47.8418C36.1554 48.17 35.6061 48.3342 34.9386 48.3342H28.0632C27.3947 48.3342 26.8457 48.17 26.4159 47.8418C25.9861 47.5132 25.771 47.0456 25.771 46.4377V20.3333H37.2303V46.4377Z" fill="#DB184B"/>
<path d="M54.6794 16.6613C54.4652 16.4426 54.1907 16.3333 53.8554 16.3333H38.1C40.3199 16.3333 42.2118 15.5378 43.7759 13.9455C45.3391 12.3534 46.1211 10.4272 46.1211 8.16667C46.1211 5.90616 45.3391 3.97996 43.7759 2.38782C42.2118 0.796069 40.3199 0 38.1 0C35.5458 0 33.5402 0.935643 32.0842 2.80706L27.5004 8.82265L22.9176 2.80706C21.4611 0.935643 19.456 0 16.9015 0C14.6812 0 12.7891 0.795558 11.2259 2.38782C9.66252 3.97996 8.88052 5.90616 8.88052 8.16667C8.88052 10.4272 9.66201 12.3539 11.2259 13.9455C12.7895 15.5373 14.6812 16.3333 16.9015 16.3333H1.14572C0.811219 16.3333 0.536925 16.4426 0.32208 16.6613C0.107485 16.8803 0 17.1599 0 17.5V29.1674C0 29.5073 0.107109 29.7871 0.32208 30.0054C0.5368 30.2239 0.811596 30.3331 1.14572 30.3331H4.58349V45.5006C4.58349 46.4734 4.91774 47.2993 5.58623 47.9792C6.25422 48.6601 7.06594 49 8.02114 49H46.9804C47.9358 49 48.747 48.6601 49.4157 47.9792C50.0835 47.2988 50.4184 46.4725 50.4184 45.5006V30.3331H53.8545C54.1893 30.3331 54.464 30.2239 54.6786 30.0054C54.8931 29.787 55 29.5073 55 29.1674V17.5C55.0005 17.1599 54.894 16.8803 54.6794 16.6613ZM35.6296 5.79672C36.2501 5.04356 37.0734 4.66685 38.1 4.66685C39.0554 4.66685 39.867 5.00678 40.5354 5.68741C41.2031 6.36766 41.5371 7.19425 41.5371 8.16654C41.5371 9.13883 41.2023 9.96542 40.5354 10.6457C39.8666 11.3263 39.0554 11.6662 38.1 11.6662H31.1528L35.6296 5.79672ZM16.9012 11.6664C15.9462 11.6664 15.135 11.3263 14.4655 10.6458C13.7974 9.96555 13.463 9.13896 13.463 8.16667C13.463 7.19437 13.797 6.36817 14.4655 5.68754C15.134 5.00691 15.9458 4.66698 16.9008 4.66698C17.9277 4.66698 18.7511 5.04318 19.3718 5.79685L23.8838 11.6665L16.9012 11.6664ZM33.2303 42.4377C33.2303 43.0456 33.0147 43.5132 32.5855 43.8418C32.1554 44.17 31.6061 44.3342 30.9386 44.3342H24.0632C23.3947 44.3342 22.8457 44.17 22.4159 43.8418C21.9861 43.5132 21.771 43.0456 21.771 42.4377V16.3333H33.2303V42.4377Z" fill="#4CFFFD"/>
<mask id="mask0" mask-type="alpha" maskUnits="userSpaceOnUse" x="0" y="0" width="55" height="49">
<path d="M54.6794 16.6613C54.4652 16.4426 54.1907 16.3333 53.8554 16.3333H38.1C40.3199 16.3333 42.2118 15.5378 43.7759 13.9455C45.3391 12.3534 46.1211 10.4272 46.1211 8.16667C46.1211 5.90616 45.3391 3.97996 43.7759 2.38782C42.2118 0.796069 40.3199 0 38.1 0C35.5458 0 33.5402 0.935643 32.0842 2.80706L27.5004 8.82265L22.9176 2.80706C21.4611 0.935643 19.456 0 16.9015 0C14.6812 0 12.7891 0.795558 11.2259 2.38782C9.66252 3.97996 8.88052 5.90616 8.88052 8.16667C8.88052 10.4272 9.66201 12.3539 11.2259 13.9455C12.7895 15.5373 14.6812 16.3333 16.9015 16.3333H1.14572C0.811219 16.3333 0.536925 16.4426 0.32208 16.6613C0.107485 16.8803 0 17.1599 0 17.5V29.1674C0 29.5073 0.107109 29.7871 0.32208 30.0054C0.5368 30.2239 0.811596 30.3331 1.14572 30.3331H4.58349V45.5006C4.58349 46.4734 4.91774 47.2993 5.58623 47.9792C6.25422 48.6601 7.06594 49 8.02114 49H46.9804C47.9358 49 48.747 48.6601 49.4157 47.9792C50.0835 47.2988 50.4184 46.4725 50.4184 45.5006V30.3331H53.8545C54.1893 30.3331 54.464 30.2239 54.6786 30.0054C54.8931 29.787 55 29.5073 55 29.1674V17.5C55.0005 17.1599 54.894 16.8803 54.6794 16.6613ZM35.6296 5.79672C36.2501 5.04356 37.0734 4.66685 38.1 4.66685C39.0554 4.66685 39.867 5.00678 40.5354 5.68741C41.2031 6.36766 41.5371 7.19425 41.5371 8.16654C41.5371 9.13883 41.2023 9.96542 40.5354 10.6457C39.8666 11.3263 39.0554 11.6662 38.1 11.6662H31.1528L35.6296 5.79672ZM16.9012 11.6664C15.9462 11.6664 15.135 11.3263 14.4655 10.6458C13.7974 9.96555 13.463 9.13896 13.463 8.16667C13.463 7.19437 13.797 6.36817 14.4655 5.68754C15.134 5.00691 15.9458 4.66698 16.9008 4.66698C17.9277 4.66698 18.7511 5.04318 19.3718 5.79685L23.8838 11.6665L16.9012 11.6664ZM33.2303 42.4377C33.2303 43.0456 33.0147 43.5132 32.5855 43.8418C32.1554 44.17 31.6061 44.3342 30.9386 44.3342H24.0632C23.3947 44.3342 22.8457 44.17 22.4159 43.8418C21.9861 43.5132 21.771 43.0456 21.771 42.4377V16.3333H33.2303V42.4377Z" fill="white"/>
</mask>
<g mask="url(#mask0)">
<path d="M58.6794 20.6613C58.4652 20.4426 58.1907 20.3333 57.8554 20.3333H42.1C44.3199 20.3333 46.2118 19.5378 47.7759 17.9455C49.3391 16.3534 50.1211 14.4272 50.1211 12.1667C50.1211 9.90616 49.3391 7.97996 47.7759 6.38782C46.2118 4.79607 44.3199 4 42.1 4C39.5458 4 37.5402 4.93564 36.0842 6.80706L31.5004 12.8227L26.9176 6.80706C25.4611 4.93564 23.456 4 20.9015 4C18.6812 4 16.7891 4.79556 15.2259 6.38782C13.6625 7.97996 12.8805 9.90616 12.8805 12.1667C12.8805 14.4272 13.662 16.3539 15.2259 17.9455C16.7895 19.5373 18.6812 20.3333 20.9015 20.3333H5.14572C4.81122 20.3333 4.53692 20.4426 4.32208 20.6613C4.10749 20.8803 4 21.1599 4 21.5V33.1674C4 33.5073 4.10711 33.7871 4.32208 34.0054C4.5368 34.2239 4.8116 34.3331 5.14572 34.3331H8.58349V49.5006C8.58349 50.4734 8.91774 51.2993 9.58623 51.9792C10.2542 52.6601 11.0659 53 12.0211 53H50.9804C51.9358 53 52.747 52.6601 53.4157 51.9792C54.0835 51.2988 54.4184 50.4725 54.4184 49.5006V34.3331H57.8545C58.1893 34.3331 58.464 34.2239 58.6786 34.0054C58.8931 33.787 59 33.5073 59 33.1674V21.5C59.0005 21.1599 58.894 20.8803 58.6794 20.6613ZM39.6296 9.79672C40.2501 9.04356 41.0734 8.66685 42.1 8.66685C43.0554 8.66685 43.867 9.00678 44.5354 9.68741C45.2031 10.3677 45.5371 11.1942 45.5371 12.1665C45.5371 13.1388 45.2023 13.9654 44.5354 14.6457C43.8666 15.3263 43.0554 15.6662 42.1 15.6662H35.1528L39.6296 9.79672ZM20.9012 15.6664C19.9462 15.6664 19.135 15.3263 18.4655 14.6458C17.7974 13.9655 17.463 13.139 17.463 12.1667C17.463 11.1944 17.797 10.3682 18.4655 9.68754C19.134 9.00691 19.9458 8.66698 20.9008 8.66698C21.9277 8.66698 22.7511 9.04318 23.3718 9.79685L27.8838 15.6665L20.9012 15.6664ZM37.2303 46.4377C37.2303 47.0456 37.0147 47.5132 36.5855 47.8418C36.1554 48.17 35.6061 48.3342 34.9386 48.3342H28.0632C27.3947 48.3342 26.8457 48.17 26.4159 47.8418C25.9861 47.5132 25.771 47.0456 25.771 46.4377V20.3333H37.2303V46.4377Z" fill="white"/>
</g>
</svg>
