<svg width="48" height="58" viewBox="0 0 48 58" fill="none" xmlns="http://www.w3.org/2000/svg">
<path d="M28.5477 24.0391C27.9826 24.0391 27.5239 24.5116 27.5239 25.0938C27.5239 25.676 27.9826 26.1485 28.5477 26.1485C29.1128 26.1485 29.5715 25.676 29.5715 25.0938C29.5715 24.5116 29.1128 24.0391 28.5477 24.0391Z" fill="#DB184B"/>
<path d="M24.4525 24.0391C23.8874 24.0391 23.4287 24.5116 23.4287 25.0938C23.4287 25.676 23.8874 26.1485 24.4525 26.1485C25.0176 26.1485 25.4763 25.676 25.4763 25.0938C25.4763 24.5116 25.0176 24.0391 24.4525 24.0391Z" fill="#DB184B"/>
<path d="M22.0721 15.6016H20.69C18.813 15.6016 17.2859 17.1748 17.2859 19.1084V19.583C17.2859 21.6174 18.9087 23.0929 20.6788 23.0929C21.5238 23.0929 21.9743 22.8016 23.1488 22.4348C24.5421 21.9574 25.4763 20.615 25.4763 19.1084C25.4763 17.1748 23.9492 15.6016 22.0721 15.6016ZM22.5026 20.4332L21.1188 20.9081C20.2378 21.2105 19.3336 20.5358 19.3336 19.5831V19.1084C19.3336 18.3379 19.942 17.711 20.69 17.711H22.0721C22.8201 17.711 23.4287 18.3379 23.4287 19.1084C23.4287 19.6981 23.0645 20.2407 22.5026 20.4332Z" fill="#DB184B"/>
<path d="M32.3102 15.6016H30.9281C29.0467 15.6016 27.5239 17.1699 27.5239 19.1084C27.5239 20.619 28.4587 21.9556 29.851 22.4346L31.234 22.9091C33.4347 23.6651 35.7143 21.9844 35.7143 19.583V19.1084C35.7143 17.1748 34.1872 15.6016 32.3102 15.6016ZM33.6667 19.583C33.6667 20.5378 32.7608 21.2099 31.8815 20.908L30.4988 20.4336C29.9442 20.2426 29.5714 19.7102 29.5714 19.1084C29.5715 18.336 30.1782 17.711 30.9281 17.711H32.3102C33.0582 17.711 33.6667 18.3379 33.6667 19.1084V19.583Z" fill="#DB184B"/>
<path d="M44.6643 45.4313C43.2696 45.161 41.5966 45.5962 40.5926 47.0683L34.2972 44.2891L40.6027 41.5052C41.3595 42.5804 42.57 43.2344 43.9048 43.2344C46.1629 43.2344 48 41.3419 48 39.0157C48 37.4789 47.1788 36.0888 45.9157 35.3537C46.247 32.8466 44.3398 30.5782 41.8572 30.5782C39.1165 30.5782 37.2176 33.2968 37.8993 35.8141L26.5002 40.8467L15.0911 35.8098C15.7845 33.1497 13.7873 30.5782 11.143 30.5782C8.65807 30.5782 6.75287 32.8496 7.08458 35.3537C3.87394 37.2215 4.43467 42.3913 8.33598 43.1469C9.73081 43.4172 11.4035 42.982 12.4077 41.5099L18.703 44.2891L12.3975 47.0729C11.6407 45.9977 10.4302 45.3438 9.09544 45.3438C6.83734 45.3438 5.00022 47.2363 5.00022 49.5625C5.00022 51.0994 5.82121 52.4895 7.08458 53.2245C6.75256 55.7312 8.66042 58 11.143 58C13.8409 58 15.7942 55.3252 15.101 52.764L26.5 47.7315L37.9091 52.7684C37.2162 55.4262 39.2108 58 41.8572 58C44.3433 58 46.2467 55.7288 45.9157 53.2245C49.1243 51.3573 48.5681 46.1874 44.6643 45.4313ZM12.3551 39.1917C11.8251 38.9574 11.2085 39.2213 10.998 39.7782C10.5458 40.9734 9.4851 41.223 8.71427 41.0739C6.51392 40.6476 6.5219 37.5618 8.56408 36.9909C9.15431 36.8258 9.47383 36.1669 9.24655 35.5813C8.69708 34.1669 9.72098 32.6875 11.143 32.6875C12.6188 32.6875 13.748 34.3183 12.8787 35.8325C12.5637 36.3813 12.7902 37.0888 13.3566 37.3388L23.9011 41.9941L21.302 43.1415L12.3551 39.1917ZM13.3566 51.2393C12.7895 51.4897 12.5637 52.198 12.8792 52.7465C13.7537 54.2664 12.6066 55.8907 11.143 55.8907C9.72334 55.8907 8.69605 54.4137 9.24645 52.9969C9.47353 52.4118 9.15472 51.7525 8.56398 51.5873C7.67133 51.3379 7.04783 50.5052 7.04783 49.5625C7.04783 48.3994 7.96639 47.4532 9.09544 47.4532C9.94141 47.4532 10.6882 47.982 10.998 48.8002C11.2081 49.3553 11.8231 49.6214 12.355 49.3865L39.6437 37.3389C40.2108 37.0885 40.4366 36.3802 40.1211 35.8317C39.2463 34.312 40.3935 32.6875 41.8572 32.6875C43.2795 32.6875 44.3032 34.1672 43.7538 35.5811C43.5265 36.166 43.8453 36.8256 44.4361 36.9909C45.3289 37.2404 45.9524 38.0731 45.9524 39.0157C45.9524 40.1788 45.0338 41.125 43.9048 41.125C43.0588 41.125 42.3119 40.5962 42.0021 39.7779C41.7921 39.223 41.1772 38.9569 40.645 39.1917L13.3566 51.2393ZM44.4362 51.5873C44.1543 51.6662 43.9185 51.8653 43.7882 52.1346C43.6578 52.4039 43.6453 52.7176 43.7539 52.9971C44.3022 54.4084 43.2823 55.8907 41.8572 55.8907C40.3813 55.8907 39.2521 54.2599 40.1216 52.7457C40.4367 52.1967 40.2098 51.4892 39.6437 51.2394L29.0991 46.5841L31.6981 45.4367L40.645 49.3865C41.1751 49.6207 41.7914 49.357 42.0022 48.8001C42.4543 47.6049 43.5148 47.3551 44.286 47.5043C46.4864 47.9306 46.4785 51.0164 44.4362 51.5873Z" fill="#DB184B"/>
<path d="M39.8095 15.6016C39.8095 8.01259 33.8632 4.00003 26.5001 4.00003C19.1309 4.00003 13.1907 8.01807 13.1907 15.6016C13.1907 17.2691 13.4912 19.74 14.0534 21.4661C13.4991 22.2013 13.1907 23.107 13.1907 24.0391C13.1907 26.8244 15.8272 28.8724 18.4166 28.0808L19.0942 28.0814C19.2469 28.2645 19.3335 28.5005 19.3335 28.7493V32.0547C19.3335 33.7994 20.7113 35.2188 22.4049 35.2188L30.5953 35.2188C32.2889 35.2188 33.6667 33.7994 33.6667 32.0547V28.666C33.6667 28.4548 33.7404 28.2555 33.8709 28.1003L34.6604 28.1015C37.2348 28.831 39.8095 26.7999 39.8095 24.0391C39.8095 23.1069 39.5011 22.2013 38.9468 21.4661C39.5091 19.74 39.8095 17.2691 39.8095 15.6016ZM37.0794 22.4821C37.5195 22.8921 37.7619 23.4451 37.7619 24.0391C37.7619 25.4478 36.4209 26.4562 35.1091 26.0392C35.0118 26.0083 34.9106 25.9926 34.8088 25.9924C33.684 26.0293 33.3647 25.8878 32.9563 26.1559C32.119 26.7062 31.6191 27.6446 31.6191 28.666V32.0547C31.6191 32.6363 31.1598 33.1094 30.5953 33.1094L29.5715 33.1094V29.3125C29.5715 28.7301 29.1131 28.2578 28.5477 28.2578C27.9824 28.2578 27.5239 28.7301 27.5239 29.3125V33.1094H25.4763V29.3125C25.4763 28.7301 25.0178 28.2578 24.4525 28.2578C23.887 28.2578 23.4287 28.7301 23.4287 29.3125V33.1094H22.4049C21.8404 33.1094 21.3811 32.6363 21.3811 32.0547V28.7493C21.3811 27.1369 20.1795 25.9731 19.4715 25.9723C19.4568 25.9723 18.2492 25.9713 18.2595 25.9713C17.8378 25.9713 17.5109 26.3325 16.6356 26.0245C16.6205 26.0193 16.6053 26.0143 16.59 26.0098C15.7808 25.7063 15.2383 24.9164 15.2383 24.0391C15.2383 23.4451 15.4807 22.8921 15.9208 22.4821C16.2469 22.1783 16.3483 21.6942 16.1729 21.279C15.5879 19.8941 15.2383 17.3047 15.2383 15.6016C15.2383 8.603 21.0558 6.10941 26.5001 6.10941C31.9445 6.10941 37.7619 8.603 37.7619 15.6016C37.7619 17.3047 37.4123 19.8941 36.8273 21.279C36.6518 21.6942 36.7533 22.1783 37.0794 22.4821Z" fill="#DB184B"/>
<path fill-rule="evenodd" clip-rule="evenodd" d="M37.0794 22.4821C37.5195 22.8921 37.7619 23.4451 37.7619 24.0391C37.7619 25.4478 36.4209 26.4562 35.1091 26.0392C35.0118 26.0083 34.9106 25.9926 34.8088 25.9924C33.684 26.0293 33.3647 25.8878 32.9563 26.1559C32.119 26.7062 31.6191 27.6446 31.6191 28.666V32.0547C31.6191 32.6363 31.1598 33.1094 30.5953 33.1094L29.5715 33.1094V29.3125C29.5715 28.7301 29.1131 28.2578 28.5477 28.2578C27.9824 28.2578 27.5239 28.7301 27.5239 29.3125V33.1094H25.4763V29.3125C25.4763 28.7301 25.0178 28.2578 24.4525 28.2578C23.887 28.2578 23.4287 28.7301 23.4287 29.3125V33.1094H22.4049C21.8404 33.1094 21.3811 32.6363 21.3811 32.0547V28.7493C21.3811 27.1369 20.1795 25.9731 19.4715 25.9723C19.4568 25.9723 18.2492 25.9713 18.2595 25.9713C17.8378 25.9713 17.5109 26.3325 16.6356 26.0245C16.6205 26.0193 16.6053 26.0143 16.59 26.0098C15.7808 25.7063 15.2383 24.9164 15.2383 24.0391C15.2383 23.4451 15.4807 22.8921 15.9208 22.4821C16.2469 22.1783 16.3483 21.6942 16.1729 21.279C15.5879 19.8941 15.2383 17.3047 15.2383 15.6016C15.2383 8.603 21.0558 6.10941 26.5001 6.10941C31.9445 6.10941 37.7619 8.603 37.7619 15.6016C37.7619 17.3047 37.4123 19.8941 36.8273 21.279C36.6518 21.6942 36.7533 22.1783 37.0794 22.4821ZM27.5239 25.0938C27.5239 24.5116 27.9826 24.0391 28.5477 24.0391C29.1128 24.0391 29.5715 24.5116 29.5715 25.0938C29.5715 25.676 29.1128 26.1485 28.5477 26.1485C27.9826 26.1485 27.5239 25.676 27.5239 25.0938ZM23.4287 25.0938C23.4287 24.5116 23.8874 24.0391 24.4525 24.0391C25.0176 24.0391 25.4763 24.5116 25.4763 25.0938C25.4763 25.676 25.0176 26.1485 24.4525 26.1485C23.8874 26.1485 23.4287 25.676 23.4287 25.0938ZM20.69 15.6016H22.0721C23.9492 15.6016 25.4763 17.1748 25.4763 19.1084C25.4763 20.615 24.5421 21.9574 23.1488 22.4348C21.9743 22.8016 21.5238 23.0929 20.6788 23.0929C18.9087 23.0929 17.2859 21.6174 17.2859 19.583V19.1084C17.2859 17.1748 18.813 15.6016 20.69 15.6016ZM30.9281 15.6016H32.3102C34.1872 15.6016 35.7143 17.1748 35.7143 19.1084V19.583C35.7143 21.9844 33.4347 23.6651 31.234 22.9091L29.851 22.4346C28.4587 21.9556 27.5239 20.619 27.5239 19.1084C27.5239 17.1699 29.0467 15.6016 30.9281 15.6016Z" fill="#DB184B"/>
<path d="M33.6667 19.583C33.6667 20.5378 32.7608 21.2099 31.8815 20.908L30.4988 20.4336C29.9442 20.2426 29.5714 19.7102 29.5714 19.1084C29.5715 18.336 30.1782 17.711 30.9281 17.711H32.3102C33.0582 17.711 33.6667 18.3379 33.6667 19.1084V19.583Z" fill="#DB184B"/>
<path d="M22.5026 20.4332L21.1188 20.9081C20.2378 21.2105 19.3336 20.5358 19.3336 19.5831V19.1084C19.3336 18.3379 19.942 17.711 20.69 17.711H22.0721C22.8201 17.711 23.4287 18.3379 23.4287 19.1084C23.4287 19.6981 23.0645 20.2407 22.5026 20.4332Z" fill="#DB184B"/>
<path d="M13.3566 51.2393C12.7895 51.4897 12.5637 52.198 12.8792 52.7465C13.7537 54.2664 12.6066 55.8907 11.143 55.8907C9.72334 55.8907 8.69605 54.4137 9.24645 52.9969C9.47353 52.4118 9.15472 51.7525 8.56398 51.5873C7.67133 51.3379 7.04783 50.5052 7.04783 49.5625C7.04783 48.3994 7.96639 47.4532 9.09544 47.4532C9.94141 47.4532 10.6882 47.982 10.998 48.8002C11.2081 49.3553 11.8231 49.6214 12.355 49.3865L39.6437 37.3389C40.2108 37.0885 40.4366 36.3802 40.1211 35.8317C39.2463 34.312 40.3935 32.6875 41.8572 32.6875C43.2795 32.6875 44.3032 34.1672 43.7538 35.5811C43.5265 36.166 43.8453 36.8256 44.4361 36.9909C45.3289 37.2404 45.9524 38.0731 45.9524 39.0157C45.9524 40.1788 45.0338 41.125 43.9048 41.125C43.0588 41.125 42.3119 40.5962 42.0021 39.7779C41.7921 39.223 41.1772 38.9569 40.645 39.1917L13.3566 51.2393Z" fill="#DB184B"/>
<path d="M12.3551 39.1917C11.8251 38.9574 11.2085 39.2213 10.998 39.7782C10.5458 40.9734 9.4851 41.223 8.71427 41.0739C6.51392 40.6476 6.5219 37.5618 8.56408 36.9909C9.15431 36.8258 9.47383 36.1669 9.24655 35.5813C8.69708 34.1669 9.72098 32.6875 11.143 32.6875C12.6188 32.6875 13.748 34.3183 12.8787 35.8325C12.5637 36.3813 12.7902 37.0888 13.3566 37.3388L23.9011 41.9941L21.302 43.1415L12.3551 39.1917Z" fill="#DB184B"/>
<path d="M44.4362 51.5873C44.1543 51.6662 43.9185 51.8653 43.7882 52.1346C43.6578 52.4039 43.6453 52.7176 43.7539 52.9971C44.3022 54.4084 43.2823 55.8907 41.8572 55.8907C40.3813 55.8907 39.2521 54.2599 40.1216 52.7457C40.4367 52.1967 40.2098 51.4892 39.6437 51.2394L29.0991 46.5841L31.6981 45.4367L40.645 49.3865C41.1751 49.6207 41.7914 49.357 42.0022 48.8001C42.4543 47.6049 43.5148 47.3551 44.286 47.5043C46.4864 47.9306 46.4785 51.0164 44.4362 51.5873Z" fill="#DB184B"/>
<path d="M23.5477 20.0391C22.9826 20.0391 22.5239 20.5116 22.5239 21.0938C22.5239 21.676 22.9826 22.1485 23.5477 22.1485C24.1128 22.1485 24.5715 21.676 24.5715 21.0938C24.5715 20.5116 24.1128 20.0391 23.5477 20.0391Z" fill="#4CFFFD"/>
<path d="M19.4525 20.0391C18.8874 20.0391 18.4287 20.5116 18.4287 21.0938C18.4287 21.676 18.8874 22.1485 19.4525 22.1485C20.0176 22.1485 20.4763 21.676 20.4763 21.0938C20.4763 20.5116 20.0176 20.0391 19.4525 20.0391Z" fill="#4CFFFD"/>
<path d="M17.0721 11.6016H15.69C13.813 11.6016 12.2859 13.1748 12.2859 15.1084V15.583C12.2859 17.6174 13.9087 19.0929 15.6788 19.0929C16.5238 19.0929 16.9743 18.8016 18.1488 18.4348C19.5421 17.9574 20.4763 16.6151 20.4763 15.1084C20.4763 13.1748 18.9492 11.6016 17.0721 11.6016ZM17.5026 16.4332L16.1188 16.9081C15.2378 17.2105 14.3336 16.5358 14.3336 15.5831V15.1084C14.3336 14.3379 14.942 13.711 15.69 13.711H17.0721C17.8201 13.711 18.4287 14.3379 18.4287 15.1084C18.4287 15.6981 18.0645 16.2407 17.5026 16.4332Z" fill="#4CFFFD"/>
<path d="M27.3102 11.6016H25.9281C24.0467 11.6016 22.5239 13.1699 22.5239 15.1084C22.5239 16.619 23.4587 17.9556 24.851 18.4346L26.234 18.9091C28.4347 19.6651 30.7143 17.9844 30.7143 15.583V15.1084C30.7143 13.1748 29.1872 11.6016 27.3102 11.6016ZM28.6667 15.583C28.6667 16.5378 27.7608 17.2099 26.8815 16.908L25.4988 16.4336C24.9442 16.2426 24.5714 15.7102 24.5714 15.1084C24.5715 14.336 25.1782 13.711 25.9281 13.711H27.3102C28.0582 13.711 28.6667 14.3379 28.6667 15.1084V15.583Z" fill="#4CFFFD"/>
<path d="M39.6643 41.4313C38.2696 41.161 36.5966 41.5962 35.5926 43.0683L29.2972 40.2891L35.6027 37.5052C36.3595 38.5804 37.57 39.2344 38.9048 39.2344C41.1629 39.2344 43 37.3419 43 35.0157C43 33.4789 42.1788 32.0888 40.9157 31.3537C41.247 28.8466 39.3398 26.5782 36.8572 26.5782C34.1165 26.5782 32.2176 29.2968 32.8993 31.8141L21.5002 36.8467L10.0911 31.8098C10.7845 29.1497 8.78732 26.5782 6.14304 26.5782C3.65807 26.5782 1.75287 28.8496 2.08458 31.3537C-1.12606 33.2215 -0.565327 38.3913 3.33598 39.1469C4.73081 39.4172 6.4035 38.982 7.40775 37.5099L13.703 40.2891L7.39751 43.0729C6.64071 41.9977 5.43017 41.3438 4.09544 41.3438C1.83734 41.3438 0.00022212 43.2363 0.00022212 45.5625C0.00022212 47.0994 0.82121 48.4895 2.08458 49.2245C1.75256 51.7312 3.66042 54 6.14304 54C8.84087 54 10.7942 51.3252 10.101 48.764L21.5 43.7315L32.9091 48.7684C32.2162 51.4262 34.2108 54 36.8572 54C39.3433 54 41.2467 51.7288 40.9157 49.2245C44.1243 47.3573 43.5681 42.1874 39.6643 41.4313ZM7.35512 35.1917C6.8251 34.9574 6.20847 35.2213 5.99797 35.7782C5.54576 36.9734 4.4851 37.223 3.71427 37.0739C1.51392 36.6476 1.5219 33.5618 3.56408 32.9909C4.15431 32.8258 4.47383 32.1669 4.24655 31.5813C3.69708 30.1669 4.72098 28.6875 6.14304 28.6875C7.61876 28.6875 8.74801 30.3183 7.8787 31.8325C7.56367 32.3813 7.79024 33.0888 8.35661 33.3388L18.9011 37.9941L16.302 39.1415L7.35512 35.1917ZM8.35661 47.2393C7.78953 47.4897 7.56367 48.198 7.87921 48.7465C8.75374 50.2664 7.60657 51.8907 6.14304 51.8907C4.72334 51.8907 3.69605 50.4137 4.24645 48.9969C4.47353 48.4118 4.15471 47.7525 3.56398 47.5873C2.67133 47.3379 2.04783 46.5052 2.04783 45.5625C2.04783 44.3994 2.96639 43.4532 4.09544 43.4532C4.94141 43.4532 5.68817 43.982 5.99797 44.8002C6.20806 45.3553 6.82305 45.6214 7.35502 45.3865L34.6437 33.3389C35.2108 33.0885 35.4366 32.3802 35.1211 31.8317C34.2463 30.312 35.3935 28.6875 36.8572 28.6875C38.2795 28.6875 39.3032 30.1672 38.7538 31.5811C38.5265 32.166 38.8453 32.8256 39.4361 32.9909C40.3289 33.2404 40.9524 34.0731 40.9524 35.0157C40.9524 36.1788 40.0338 37.125 38.9048 37.125C38.0588 37.125 37.3119 36.5962 37.0021 35.7779C36.7921 35.223 36.1772 34.9569 35.645 35.1917L8.35661 47.2393ZM39.4362 47.5873C39.1543 47.6662 38.9185 47.8653 38.7882 48.1346C38.6578 48.4039 38.6453 48.7176 38.7539 48.9971C39.3022 50.4084 38.2823 51.8907 36.8572 51.8907C35.3813 51.8907 34.2521 50.2599 35.1216 48.7457C35.4367 48.1967 35.2098 47.4892 34.6437 47.2394L24.0991 42.5841L26.6981 41.4367L35.645 45.3865C36.1751 45.6207 36.7914 45.357 37.0022 44.8001C37.4543 43.6049 38.5148 43.3551 39.286 43.5043C41.4864 43.9306 41.4785 47.0164 39.4362 47.5873Z" fill="#4CFFFD"/>
<path d="M34.8095 11.6016C34.8095 4.01259 28.8632 3.05176e-05 21.5001 3.05176e-05C14.1309 3.05176e-05 8.19065 4.01807 8.19065 11.6016C8.19065 13.2691 8.49124 15.74 9.05341 17.4661C8.49912 18.2013 8.19065 19.107 8.19065 20.0391C8.19065 22.8244 10.8272 24.8724 13.4166 24.0808L14.0942 24.0814C14.2469 24.2645 14.3335 24.5005 14.3335 24.7493V28.0547C14.3335 29.7994 15.7113 31.2188 17.4049 31.2188L25.5953 31.2188C27.2889 31.2188 28.6667 29.7994 28.6667 28.0547V24.666C28.6667 24.4548 28.7404 24.2555 28.8709 24.1003L29.6604 24.1015C32.2348 24.831 34.8095 22.7999 34.8095 20.0391C34.8095 19.1069 34.5011 18.2013 33.9468 17.4661C34.5091 15.74 34.8095 13.2691 34.8095 11.6016ZM32.0794 18.4821C32.5195 18.8921 32.7619 19.4451 32.7619 20.0391C32.7619 21.4478 31.4209 22.4562 30.1091 22.0392C30.0118 22.0083 29.9106 21.9926 29.8088 21.9924C28.684 22.0293 28.3647 21.8878 27.9563 22.1559C27.119 22.7062 26.6191 23.6446 26.6191 24.666V28.0547C26.6191 28.6363 26.1598 29.1094 25.5953 29.1094L24.5715 29.1094V25.3125C24.5715 24.7301 24.1131 24.2578 23.5477 24.2578C22.9824 24.2578 22.5239 24.7301 22.5239 25.3125V29.1094H20.4763V25.3125C20.4763 24.7301 20.0178 24.2578 19.4525 24.2578C18.887 24.2578 18.4287 24.7301 18.4287 25.3125V29.1094H17.4049C16.8404 29.1094 16.3811 28.6363 16.3811 28.0547V24.7493C16.3811 23.1369 15.1795 21.9731 14.4715 21.9723C14.4568 21.9723 13.2492 21.9713 13.2595 21.9713C12.8378 21.9713 12.5109 22.3325 11.6356 22.0245C11.6205 22.0193 11.6053 22.0143 11.59 22.0098C10.7808 21.7063 10.2383 20.9164 10.2383 20.0391C10.2383 19.4451 10.4807 18.8921 10.9208 18.4821C11.2469 18.1783 11.3483 17.6942 11.1729 17.279C10.5879 15.8941 10.2383 13.3047 10.2383 11.6016C10.2383 4.603 16.0558 2.10941 21.5001 2.10941C26.9445 2.10941 32.7619 4.603 32.7619 11.6016C32.7619 13.3047 32.4123 15.8941 31.8273 17.279C31.6518 17.6942 31.7533 18.1783 32.0794 18.4821Z" fill="#4CFFFD"/>
<path fill-rule="evenodd" clip-rule="evenodd" d="M32.0794 18.4821C32.5195 18.8921 32.7619 19.4451 32.7619 20.0391C32.7619 21.4478 31.4209 22.4562 30.1091 22.0392C30.0118 22.0083 29.9106 21.9926 29.8088 21.9924C28.684 22.0293 28.3647 21.8878 27.9563 22.1559C27.119 22.7062 26.6191 23.6446 26.6191 24.666V28.0547C26.6191 28.6363 26.1598 29.1094 25.5953 29.1094L24.5715 29.1094V25.3125C24.5715 24.7301 24.1131 24.2578 23.5477 24.2578C22.9824 24.2578 22.5239 24.7301 22.5239 25.3125V29.1094H20.4763V25.3125C20.4763 24.7301 20.0178 24.2578 19.4525 24.2578C18.887 24.2578 18.4287 24.7301 18.4287 25.3125V29.1094H17.4049C16.8404 29.1094 16.3811 28.6363 16.3811 28.0547V24.7493C16.3811 23.1369 15.1795 21.9731 14.4715 21.9723C14.4568 21.9723 13.2492 21.9713 13.2595 21.9713C12.8378 21.9713 12.5109 22.3325 11.6356 22.0245C11.6205 22.0193 11.6053 22.0143 11.59 22.0098C10.7808 21.7063 10.2383 20.9164 10.2383 20.0391C10.2383 19.4451 10.4807 18.8921 10.9208 18.4821C11.2469 18.1783 11.3483 17.6942 11.1729 17.279C10.5879 15.8941 10.2383 13.3047 10.2383 11.6016C10.2383 4.603 16.0558 2.10941 21.5001 2.10941C26.9445 2.10941 32.7619 4.603 32.7619 11.6016C32.7619 13.3047 32.4123 15.8941 31.8273 17.279C31.6518 17.6942 31.7533 18.1783 32.0794 18.4821ZM22.5239 21.0938C22.5239 20.5116 22.9826 20.0391 23.5477 20.0391C24.1128 20.0391 24.5715 20.5116 24.5715 21.0938C24.5715 21.676 24.1128 22.1485 23.5477 22.1485C22.9826 22.1485 22.5239 21.676 22.5239 21.0938ZM18.4287 21.0938C18.4287 20.5116 18.8874 20.0391 19.4525 20.0391C20.0176 20.0391 20.4763 20.5116 20.4763 21.0938C20.4763 21.676 20.0176 22.1485 19.4525 22.1485C18.8874 22.1485 18.4287 21.676 18.4287 21.0938ZM15.69 11.6016H17.0721C18.9492 11.6016 20.4763 13.1748 20.4763 15.1084C20.4763 16.6151 19.5421 17.9574 18.1488 18.4348C16.9743 18.8016 16.5238 19.0929 15.6788 19.0929C13.9087 19.0929 12.2859 17.6174 12.2859 15.583V15.1084C12.2859 13.1748 13.813 11.6016 15.69 11.6016ZM25.9281 11.6016H27.3102C29.1872 11.6016 30.7143 13.1748 30.7143 15.1084V15.583C30.7143 17.9844 28.4347 19.6651 26.234 18.9091L24.851 18.4346C23.4587 17.9556 22.5239 16.619 22.5239 15.1084C22.5239 13.1699 24.0467 11.6016 25.9281 11.6016Z" fill="#4CFFFD"/>
<path d="M28.6667 15.583C28.6667 16.5378 27.7608 17.2099 26.8815 16.908L25.4988 16.4336C24.9442 16.2426 24.5714 15.7102 24.5714 15.1084C24.5715 14.336 25.1782 13.711 25.9281 13.711H27.3102C28.0582 13.711 28.6667 14.3379 28.6667 15.1084V15.583Z" fill="#4CFFFD"/>
<path d="M17.5026 16.4332L16.1188 16.9081C15.2378 17.2105 14.3336 16.5358 14.3336 15.5831V15.1084C14.3336 14.3379 14.942 13.711 15.69 13.711H17.0721C17.8201 13.711 18.4287 14.3379 18.4287 15.1084C18.4287 15.6981 18.0645 16.2407 17.5026 16.4332Z" fill="#4CFFFD"/>
<path d="M8.35661 47.2393C7.78953 47.4897 7.56367 48.198 7.87921 48.7465C8.75374 50.2664 7.60657 51.8907 6.14304 51.8907C4.72334 51.8907 3.69605 50.4137 4.24645 48.9969C4.47353 48.4118 4.15471 47.7525 3.56398 47.5873C2.67133 47.3379 2.04783 46.5052 2.04783 45.5625C2.04783 44.3994 2.96639 43.4532 4.09544 43.4532C4.94141 43.4532 5.68817 43.982 5.99797 44.8002C6.20806 45.3553 6.82305 45.6214 7.35502 45.3865L34.6437 33.3389C35.2108 33.0885 35.4366 32.3802 35.1211 31.8317C34.2463 30.312 35.3935 28.6875 36.8572 28.6875C38.2795 28.6875 39.3032 30.1672 38.7538 31.5811C38.5265 32.166 38.8453 32.8256 39.4361 32.9909C40.3289 33.2404 40.9524 34.0731 40.9524 35.0157C40.9524 36.1788 40.0338 37.125 38.9048 37.125C38.0588 37.125 37.3119 36.5962 37.0021 35.7779C36.7921 35.223 36.1772 34.9569 35.645 35.1917L8.35661 47.2393Z" fill="#4CFFFD"/>
<path d="M7.35512 35.1917C6.8251 34.9574 6.20847 35.2213 5.99797 35.7782C5.54576 36.9734 4.4851 37.223 3.71427 37.0739C1.51392 36.6476 1.5219 33.5618 3.56408 32.9909C4.15431 32.8258 4.47383 32.1669 4.24655 31.5813C3.69708 30.1669 4.72098 28.6875 6.14304 28.6875C7.61876 28.6875 8.74801 30.3183 7.8787 31.8325C7.56367 32.3813 7.79024 33.0888 8.35661 33.3388L18.9011 37.9941L16.302 39.1415L7.35512 35.1917Z" fill="#4CFFFD"/>
<path d="M39.4362 47.5873C39.1543 47.6662 38.9185 47.8653 38.7882 48.1346C38.6578 48.4039 38.6453 48.7176 38.7539 48.9971C39.3022 50.4084 38.2823 51.8907 36.8572 51.8907C35.3813 51.8907 34.2521 50.2599 35.1216 48.7457C35.4367 48.1967 35.2098 47.4892 34.6437 47.2394L24.0991 42.5841L26.6981 41.4367L35.645 45.3865C36.1751 45.6207 36.7914 45.357 37.0022 44.8001C37.4543 43.6049 38.5148 43.3551 39.286 43.5043C41.4864 43.9306 41.4785 47.0164 39.4362 47.5873Z" fill="#4CFFFD"/>
<mask id="mask0" mask-type="alpha" maskUnits="userSpaceOnUse" x="0" y="0" width="44" height="54">
<path d="M23.5477 20.0391C22.9826 20.0391 22.5239 20.5116 22.5239 21.0938C22.5239 21.676 22.9826 22.1485 23.5477 22.1485C24.1128 22.1485 24.5715 21.676 24.5715 21.0938C24.5715 20.5116 24.1128 20.0391 23.5477 20.0391Z" fill="white"/>
<path d="M19.4525 20.0391C18.8874 20.0391 18.4287 20.5116 18.4287 21.0938C18.4287 21.676 18.8874 22.1485 19.4525 22.1485C20.0176 22.1485 20.4763 21.676 20.4763 21.0938C20.4763 20.5116 20.0176 20.0391 19.4525 20.0391Z" fill="white"/>
<path d="M17.0721 11.6016H15.69C13.813 11.6016 12.2859 13.1748 12.2859 15.1084V15.583C12.2859 17.6174 13.9087 19.0929 15.6788 19.0929C16.5238 19.0929 16.9743 18.8016 18.1488 18.4348C19.5421 17.9574 20.4763 16.6151 20.4763 15.1084C20.4763 13.1748 18.9492 11.6016 17.0721 11.6016ZM17.5026 16.4332L16.1188 16.9081C15.2378 17.2105 14.3336 16.5358 14.3336 15.5831V15.1084C14.3336 14.3379 14.942 13.711 15.69 13.711H17.0721C17.8201 13.711 18.4287 14.3379 18.4287 15.1084C18.4287 15.6981 18.0645 16.2407 17.5026 16.4332Z" fill="white"/>
<path d="M27.3102 11.6016H25.9281C24.0467 11.6016 22.5239 13.1699 22.5239 15.1084C22.5239 16.619 23.4587 17.9556 24.851 18.4346L26.234 18.9091C28.4347 19.6651 30.7143 17.9844 30.7143 15.583V15.1084C30.7143 13.1748 29.1872 11.6016 27.3102 11.6016ZM28.6667 15.583C28.6667 16.5378 27.7608 17.2099 26.8815 16.908L25.4988 16.4336C24.9442 16.2426 24.5714 15.7102 24.5714 15.1084C24.5715 14.336 25.1782 13.711 25.9281 13.711H27.3102C28.0582 13.711 28.6667 14.3379 28.6667 15.1084V15.583Z" fill="white"/>
<path d="M39.6643 41.4313C38.2696 41.161 36.5966 41.5962 35.5926 43.0683L29.2972 40.2891L35.6027 37.5052C36.3595 38.5804 37.57 39.2344 38.9048 39.2344C41.1629 39.2344 43 37.3419 43 35.0157C43 33.4789 42.1788 32.0888 40.9157 31.3537C41.247 28.8466 39.3398 26.5782 36.8572 26.5782C34.1165 26.5782 32.2176 29.2968 32.8993 31.8141L21.5002 36.8467L10.0911 31.8098C10.7845 29.1497 8.78732 26.5782 6.14304 26.5782C3.65807 26.5782 1.75287 28.8496 2.08458 31.3537C-1.12606 33.2215 -0.565327 38.3913 3.33598 39.1469C4.73081 39.4172 6.4035 38.982 7.40775 37.5099L13.703 40.2891L7.39751 43.0729C6.64071 41.9977 5.43017 41.3438 4.09544 41.3438C1.83734 41.3438 0.00022212 43.2363 0.00022212 45.5625C0.00022212 47.0994 0.82121 48.4895 2.08458 49.2245C1.75256 51.7312 3.66042 54 6.14304 54C8.84087 54 10.7942 51.3252 10.101 48.764L21.5 43.7315L32.9091 48.7684C32.2162 51.4262 34.2108 54 36.8572 54C39.3433 54 41.2467 51.7288 40.9157 49.2245C44.1243 47.3573 43.5681 42.1874 39.6643 41.4313ZM7.35512 35.1917C6.8251 34.9574 6.20847 35.2213 5.99797 35.7782C5.54576 36.9734 4.4851 37.223 3.71427 37.0739C1.51392 36.6476 1.5219 33.5618 3.56408 32.9909C4.15431 32.8258 4.47383 32.1669 4.24655 31.5813C3.69708 30.1669 4.72098 28.6875 6.14304 28.6875C7.61876 28.6875 8.74801 30.3183 7.8787 31.8325C7.56367 32.3813 7.79024 33.0888 8.35661 33.3388L18.9011 37.9941L16.302 39.1415L7.35512 35.1917ZM8.35661 47.2393C7.78953 47.4897 7.56367 48.198 7.87921 48.7465C8.75374 50.2664 7.60657 51.8907 6.14304 51.8907C4.72334 51.8907 3.69605 50.4137 4.24645 48.9969C4.47353 48.4118 4.15471 47.7525 3.56398 47.5873C2.67133 47.3379 2.04783 46.5052 2.04783 45.5625C2.04783 44.3994 2.96639 43.4532 4.09544 43.4532C4.94141 43.4532 5.68817 43.982 5.99797 44.8002C6.20806 45.3553 6.82305 45.6214 7.35502 45.3865L34.6437 33.3389C35.2108 33.0885 35.4366 32.3802 35.1211 31.8317C34.2463 30.312 35.3935 28.6875 36.8572 28.6875C38.2795 28.6875 39.3032 30.1672 38.7538 31.5811C38.5265 32.166 38.8453 32.8256 39.4361 32.9909C40.3289 33.2404 40.9524 34.0731 40.9524 35.0157C40.9524 36.1788 40.0338 37.125 38.9048 37.125C38.0588 37.125 37.3119 36.5962 37.0021 35.7779C36.7921 35.223 36.1772 34.9569 35.645 35.1917L8.35661 47.2393ZM39.4362 47.5873C39.1543 47.6662 38.9185 47.8653 38.7882 48.1346C38.6578 48.4039 38.6453 48.7176 38.7539 48.9971C39.3022 50.4084 38.2823 51.8907 36.8572 51.8907C35.3813 51.8907 34.2521 50.2599 35.1216 48.7457C35.4367 48.1967 35.2098 47.4892 34.6437 47.2394L24.0991 42.5841L26.6981 41.4367L35.645 45.3865C36.1751 45.6207 36.7914 45.357 37.0022 44.8001C37.4543 43.6049 38.5148 43.3551 39.286 43.5043C41.4864 43.9306 41.4785 47.0164 39.4362 47.5873Z" fill="white"/>
<path d="M34.8095 11.6016C34.8095 4.01259 28.8632 3.05176e-05 21.5001 3.05176e-05C14.1309 3.05176e-05 8.19065 4.01807 8.19065 11.6016C8.19065 13.2691 8.49124 15.74 9.05341 17.4661C8.49912 18.2013 8.19065 19.107 8.19065 20.0391C8.19065 22.8244 10.8272 24.8724 13.4166 24.0808L14.0942 24.0814C14.2469 24.2645 14.3335 24.5005 14.3335 24.7493V28.0547C14.3335 29.7994 15.7113 31.2188 17.4049 31.2188L25.5953 31.2188C27.2889 31.2188 28.6667 29.7994 28.6667 28.0547V24.666C28.6667 24.4548 28.7404 24.2555 28.8709 24.1003L29.6604 24.1015C32.2348 24.831 34.8095 22.7999 34.8095 20.0391C34.8095 19.1069 34.5011 18.2013 33.9468 17.4661C34.5091 15.74 34.8095 13.2691 34.8095 11.6016ZM32.0794 18.4821C32.5195 18.8921 32.7619 19.4451 32.7619 20.0391C32.7619 21.4478 31.4209 22.4562 30.1091 22.0392C30.0118 22.0083 29.9106 21.9926 29.8088 21.9924C28.684 22.0293 28.3647 21.8878 27.9563 22.1559C27.119 22.7062 26.6191 23.6446 26.6191 24.666V28.0547C26.6191 28.6363 26.1598 29.1094 25.5953 29.1094L24.5715 29.1094V25.3125C24.5715 24.7301 24.1131 24.2578 23.5477 24.2578C22.9824 24.2578 22.5239 24.7301 22.5239 25.3125V29.1094H20.4763V25.3125C20.4763 24.7301 20.0178 24.2578 19.4525 24.2578C18.887 24.2578 18.4287 24.7301 18.4287 25.3125V29.1094H17.4049C16.8404 29.1094 16.3811 28.6363 16.3811 28.0547V24.7493C16.3811 23.1369 15.1795 21.9731 14.4715 21.9723C14.4568 21.9723 13.2492 21.9713 13.2595 21.9713C12.8378 21.9713 12.5109 22.3325 11.6356 22.0245C11.6205 22.0193 11.6053 22.0143 11.59 22.0098C10.7808 21.7063 10.2383 20.9164 10.2383 20.0391C10.2383 19.4451 10.4807 18.8921 10.9208 18.4821C11.2469 18.1783 11.3483 17.6942 11.1729 17.279C10.5879 15.8941 10.2383 13.3047 10.2383 11.6016C10.2383 4.603 16.0558 2.10941 21.5001 2.10941C26.9445 2.10941 32.7619 4.603 32.7619 11.6016C32.7619 13.3047 32.4123 15.8941 31.8273 17.279C31.6518 17.6942 31.7533 18.1783 32.0794 18.4821Z" fill="white"/>
<path fill-rule="evenodd" clip-rule="evenodd" d="M32.0794 18.4821C32.5195 18.8921 32.7619 19.4451 32.7619 20.0391C32.7619 21.4478 31.4209 22.4562 30.1091 22.0392C30.0118 22.0083 29.9106 21.9926 29.8088 21.9924C28.684 22.0293 28.3647 21.8878 27.9563 22.1559C27.119 22.7062 26.6191 23.6446 26.6191 24.666V28.0547C26.6191 28.6363 26.1598 29.1094 25.5953 29.1094L24.5715 29.1094V25.3125C24.5715 24.7301 24.1131 24.2578 23.5477 24.2578C22.9824 24.2578 22.5239 24.7301 22.5239 25.3125V29.1094H20.4763V25.3125C20.4763 24.7301 20.0178 24.2578 19.4525 24.2578C18.887 24.2578 18.4287 24.7301 18.4287 25.3125V29.1094H17.4049C16.8404 29.1094 16.3811 28.6363 16.3811 28.0547V24.7493C16.3811 23.1369 15.1795 21.9731 14.4715 21.9723C14.4568 21.9723 13.2492 21.9713 13.2595 21.9713C12.8378 21.9713 12.5109 22.3325 11.6356 22.0245C11.6205 22.0193 11.6053 22.0143 11.59 22.0098C10.7808 21.7063 10.2383 20.9164 10.2383 20.0391C10.2383 19.4451 10.4807 18.8921 10.9208 18.4821C11.2469 18.1783 11.3483 17.6942 11.1729 17.279C10.5879 15.8941 10.2383 13.3047 10.2383 11.6016C10.2383 4.603 16.0558 2.10941 21.5001 2.10941C26.9445 2.10941 32.7619 4.603 32.7619 11.6016C32.7619 13.3047 32.4123 15.8941 31.8273 17.279C31.6518 17.6942 31.7533 18.1783 32.0794 18.4821ZM22.5239 21.0938C22.5239 20.5116 22.9826 20.0391 23.5477 20.0391C24.1128 20.0391 24.5715 20.5116 24.5715 21.0938C24.5715 21.676 24.1128 22.1485 23.5477 22.1485C22.9826 22.1485 22.5239 21.676 22.5239 21.0938ZM18.4287 21.0938C18.4287 20.5116 18.8874 20.0391 19.4525 20.0391C20.0176 20.0391 20.4763 20.5116 20.4763 21.0938C20.4763 21.676 20.0176 22.1485 19.4525 22.1485C18.8874 22.1485 18.4287 21.676 18.4287 21.0938ZM15.69 11.6016H17.0721C18.9492 11.6016 20.4763 13.1748 20.4763 15.1084C20.4763 16.6151 19.5421 17.9574 18.1488 18.4348C16.9743 18.8016 16.5238 19.0929 15.6788 19.0929C13.9087 19.0929 12.2859 17.6174 12.2859 15.583V15.1084C12.2859 13.1748 13.813 11.6016 15.69 11.6016ZM25.9281 11.6016H27.3102C29.1872 11.6016 30.7143 13.1748 30.7143 15.1084V15.583C30.7143 17.9844 28.4347 19.6651 26.234 18.9091L24.851 18.4346C23.4587 17.9556 22.5239 16.619 22.5239 15.1084C22.5239 13.1699 24.0467 11.6016 25.9281 11.6016Z" fill="white"/>
<path d="M28.6667 15.583C28.6667 16.5378 27.7608 17.2099 26.8815 16.908L25.4988 16.4336C24.9442 16.2426 24.5714 15.7102 24.5714 15.1084C24.5715 14.336 25.1782 13.711 25.9281 13.711H27.3102C28.0582 13.711 28.6667 14.3379 28.6667 15.1084V15.583Z" fill="white"/>
<path d="M17.5026 16.4332L16.1188 16.9081C15.2378 17.2105 14.3336 16.5358 14.3336 15.5831V15.1084C14.3336 14.3379 14.942 13.711 15.69 13.711H17.0721C17.8201 13.711 18.4287 14.3379 18.4287 15.1084C18.4287 15.6981 18.0645 16.2407 17.5026 16.4332Z" fill="white"/>
<path d="M8.35661 47.2393C7.78953 47.4897 7.56367 48.198 7.87921 48.7465C8.75374 50.2664 7.60657 51.8907 6.14304 51.8907C4.72334 51.8907 3.69605 50.4137 4.24645 48.9969C4.47353 48.4118 4.15471 47.7525 3.56398 47.5873C2.67133 47.3379 2.04783 46.5052 2.04783 45.5625C2.04783 44.3994 2.96639 43.4532 4.09544 43.4532C4.94141 43.4532 5.68817 43.982 5.99797 44.8002C6.20806 45.3553 6.82305 45.6214 7.35502 45.3865L34.6437 33.3389C35.2108 33.0885 35.4366 32.3802 35.1211 31.8317C34.2463 30.312 35.3935 28.6875 36.8572 28.6875C38.2795 28.6875 39.3032 30.1672 38.7538 31.5811C38.5265 32.166 38.8453 32.8256 39.4361 32.9909C40.3289 33.2404 40.9524 34.0731 40.9524 35.0157C40.9524 36.1788 40.0338 37.125 38.9048 37.125C38.0588 37.125 37.3119 36.5962 37.0021 35.7779C36.7921 35.223 36.1772 34.9569 35.645 35.1917L8.35661 47.2393Z" fill="white"/>
<path d="M7.35512 35.1917C6.8251 34.9574 6.20847 35.2213 5.99797 35.7782C5.54576 36.9734 4.4851 37.223 3.71427 37.0739C1.51392 36.6476 1.5219 33.5618 3.56408 32.9909C4.15431 32.8258 4.47383 32.1669 4.24655 31.5813C3.69708 30.1669 4.72098 28.6875 6.14304 28.6875C7.61876 28.6875 8.74801 30.3183 7.8787 31.8325C7.56367 32.3813 7.79024 33.0888 8.35661 33.3388L18.9011 37.9941L16.302 39.1415L7.35512 35.1917Z" fill="white"/>
<path d="M39.4362 47.5873C39.1543 47.6662 38.9185 47.8653 38.7882 48.1346C38.6578 48.4039 38.6453 48.7176 38.7539 48.9971C39.3022 50.4084 38.2823 51.8907 36.8572 51.8907C35.3813 51.8907 34.2521 50.2599 35.1216 48.7457C35.4367 48.1967 35.2098 47.4892 34.6437 47.2394L24.0991 42.5841L26.6981 41.4367L35.645 45.3865C36.1751 45.6207 36.7914 45.357 37.0022 44.8001C37.4543 43.6049 38.5148 43.3551 39.286 43.5043C41.4864 43.9306 41.4785 47.0164 39.4362 47.5873Z" fill="white"/>
</mask>
<g mask="url(#mask0)">
<path d="M27.5477 24.0391C26.9826 24.0391 26.5239 24.5116 26.5239 25.0938C26.5239 25.676 26.9826 26.1485 27.5477 26.1485C28.1128 26.1485 28.5715 25.676 28.5715 25.0938C28.5715 24.5116 28.1128 24.0391 27.5477 24.0391Z" fill="white"/>
<path d="M23.4525 24.0391C22.8874 24.0391 22.4287 24.5116 22.4287 25.0938C22.4287 25.676 22.8874 26.1485 23.4525 26.1485C24.0176 26.1485 24.4763 25.676 24.4763 25.0938C24.4763 24.5116 24.0176 24.0391 23.4525 24.0391Z" fill="white"/>
<path d="M21.0721 15.6016H19.69C17.813 15.6016 16.2859 17.1748 16.2859 19.1084V19.583C16.2859 21.6174 17.9087 23.0929 19.6788 23.0929C20.5238 23.0929 20.9743 22.8016 22.1488 22.4348C23.5421 21.9574 24.4763 20.6151 24.4763 19.1084C24.4763 17.1748 22.9492 15.6016 21.0721 15.6016ZM21.5026 20.4332L20.1188 20.9081C19.2378 21.2105 18.3336 20.5358 18.3336 19.5831V19.1084C18.3336 18.3379 18.942 17.711 19.69 17.711H21.0721C21.8201 17.711 22.4287 18.3379 22.4287 19.1084C22.4287 19.6981 22.0645 20.2407 21.5026 20.4332Z" fill="white"/>
<path d="M31.3102 15.6016H29.9281C28.0467 15.6016 26.5239 17.1699 26.5239 19.1084C26.5239 20.619 27.4587 21.9556 28.851 22.4346L30.234 22.9091C32.4347 23.6651 34.7143 21.9844 34.7143 19.583V19.1084C34.7143 17.1748 33.1872 15.6016 31.3102 15.6016ZM32.6667 19.583C32.6667 20.5378 31.7608 21.2099 30.8815 20.908L29.4988 20.4336C28.9442 20.2426 28.5714 19.7102 28.5714 19.1084C28.5715 18.336 29.1782 17.711 29.9281 17.711H31.3102C32.0582 17.711 32.6667 18.3379 32.6667 19.1084V19.583Z" fill="white"/>
<path d="M43.6643 45.4313C42.2696 45.161 40.5966 45.5962 39.5926 47.0683L33.2972 44.2891L39.6027 41.5052C40.3595 42.5804 41.57 43.2344 42.9048 43.2344C45.1629 43.2344 47 41.3419 47 39.0157C47 37.4789 46.1788 36.0888 44.9157 35.3537C45.247 32.8466 43.3398 30.5782 40.8572 30.5782C38.1165 30.5782 36.2176 33.2968 36.8993 35.8141L25.5002 40.8467L14.0911 35.8098C14.7845 33.1497 12.7873 30.5782 10.143 30.5782C7.65807 30.5782 5.75287 32.8496 6.08458 35.3537C2.87394 37.2215 3.43467 42.3913 7.33598 43.1469C8.73081 43.4172 10.4035 42.982 11.4077 41.5099L17.703 44.2891L11.3975 47.0729C10.6407 45.9977 9.43017 45.3438 8.09544 45.3438C5.83734 45.3438 4.00022 47.2363 4.00022 49.5625C4.00022 51.0994 4.82121 52.4895 6.08458 53.2245C5.75256 55.7312 7.66042 58 10.143 58C12.8409 58 14.7942 55.3252 14.101 52.764L25.5 47.7315L36.9091 52.7684C36.2162 55.4262 38.2108 58 40.8572 58C43.3433 58 45.2467 55.7288 44.9157 53.2245C48.1243 51.3573 47.5681 46.1874 43.6643 45.4313ZM11.3551 39.1917C10.8251 38.9574 10.2085 39.2213 9.99797 39.7782C9.54576 40.9734 8.4851 41.223 7.71427 41.0739C5.51392 40.6476 5.5219 37.5618 7.56408 36.9909C8.15431 36.8258 8.47383 36.1669 8.24655 35.5813C7.69708 34.1669 8.72098 32.6875 10.143 32.6875C11.6188 32.6875 12.748 34.3183 11.8787 35.8325C11.5637 36.3813 11.7902 37.0888 12.3566 37.3388L22.9011 41.9941L20.302 43.1415L11.3551 39.1917ZM12.3566 51.2393C11.7895 51.4897 11.5637 52.198 11.8792 52.7465C12.7537 54.2664 11.6066 55.8907 10.143 55.8907C8.72334 55.8907 7.69605 54.4137 8.24645 52.9969C8.47353 52.4118 8.15471 51.7525 7.56398 51.5873C6.67133 51.3379 6.04783 50.5052 6.04783 49.5625C6.04783 48.3994 6.96639 47.4532 8.09544 47.4532C8.94141 47.4532 9.68817 47.982 9.99797 48.8002C10.2081 49.3553 10.8231 49.6214 11.355 49.3865L38.6437 37.3389C39.2108 37.0885 39.4366 36.3802 39.1211 35.8317C38.2463 34.312 39.3935 32.6875 40.8572 32.6875C42.2795 32.6875 43.3032 34.1672 42.7538 35.5811C42.5265 36.166 42.8453 36.8256 43.4361 36.9909C44.3289 37.2404 44.9524 38.0731 44.9524 39.0157C44.9524 40.1788 44.0338 41.125 42.9048 41.125C42.0588 41.125 41.3119 40.5962 41.0021 39.7779C40.7921 39.223 40.1772 38.9569 39.645 39.1917L12.3566 51.2393ZM43.4362 51.5873C43.1543 51.6662 42.9185 51.8653 42.7882 52.1346C42.6578 52.4039 42.6453 52.7176 42.7539 52.9971C43.3022 54.4084 42.2823 55.8907 40.8572 55.8907C39.3813 55.8907 38.2521 54.2599 39.1216 52.7457C39.4367 52.1967 39.2098 51.4892 38.6437 51.2394L28.0991 46.5841L30.6981 45.4367L39.645 49.3865C40.1751 49.6207 40.7914 49.357 41.0022 48.8001C41.4543 47.6049 42.5148 47.3551 43.286 47.5043C45.4864 47.9306 45.4785 51.0164 43.4362 51.5873Z" fill="white"/>
<path d="M38.8095 15.6016C38.8095 8.01259 32.8632 4.00003 25.5001 4.00003C18.1309 4.00003 12.1907 8.01807 12.1907 15.6016C12.1907 17.2691 12.4912 19.74 13.0534 21.4661C12.4991 22.2013 12.1907 23.107 12.1907 24.0391C12.1907 26.8244 14.8272 28.8724 17.4166 28.0808L18.0942 28.0814C18.2469 28.2645 18.3335 28.5005 18.3335 28.7493V32.0547C18.3335 33.7994 19.7113 35.2188 21.4049 35.2188L29.5953 35.2188C31.2889 35.2188 32.6667 33.7994 32.6667 32.0547V28.666C32.6667 28.4548 32.7404 28.2555 32.8709 28.1003L33.6604 28.1015C36.2348 28.831 38.8095 26.7999 38.8095 24.0391C38.8095 23.1069 38.5011 22.2013 37.9468 21.4661C38.5091 19.74 38.8095 17.2691 38.8095 15.6016ZM36.0794 22.4821C36.5195 22.8921 36.7619 23.4451 36.7619 24.0391C36.7619 25.4478 35.4209 26.4562 34.1091 26.0392C34.0118 26.0083 33.9106 25.9926 33.8088 25.9924C32.684 26.0293 32.3647 25.8878 31.9563 26.1559C31.119 26.7062 30.6191 27.6446 30.6191 28.666V32.0547C30.6191 32.6363 30.1598 33.1094 29.5953 33.1094L28.5715 33.1094V29.3125C28.5715 28.7301 28.1131 28.2578 27.5477 28.2578C26.9824 28.2578 26.5239 28.7301 26.5239 29.3125V33.1094H24.4763V29.3125C24.4763 28.7301 24.0178 28.2578 23.4525 28.2578C22.887 28.2578 22.4287 28.7301 22.4287 29.3125V33.1094H21.4049C20.8404 33.1094 20.3811 32.6363 20.3811 32.0547V28.7493C20.3811 27.1369 19.1795 25.9731 18.4715 25.9723C18.4568 25.9723 17.2492 25.9713 17.2595 25.9713C16.8378 25.9713 16.5109 26.3325 15.6356 26.0245C15.6205 26.0193 15.6053 26.0143 15.59 26.0098C14.7808 25.7063 14.2383 24.9164 14.2383 24.0391C14.2383 23.4451 14.4807 22.8921 14.9208 22.4821C15.2469 22.1783 15.3483 21.6942 15.1729 21.279C14.5879 19.8941 14.2383 17.3047 14.2383 15.6016C14.2383 8.603 20.0558 6.10941 25.5001 6.10941C30.9445 6.10941 36.7619 8.603 36.7619 15.6016C36.7619 17.3047 36.4123 19.8941 35.8273 21.279C35.6518 21.6942 35.7533 22.1783 36.0794 22.4821Z" fill="white"/>
<path fill-rule="evenodd" clip-rule="evenodd" d="M36.0794 22.4821C36.5195 22.8921 36.7619 23.4451 36.7619 24.0391C36.7619 25.4478 35.4209 26.4562 34.1091 26.0392C34.0118 26.0083 33.9106 25.9926 33.8088 25.9924C32.684 26.0293 32.3647 25.8878 31.9563 26.1559C31.119 26.7062 30.6191 27.6446 30.6191 28.666V32.0547C30.6191 32.6363 30.1598 33.1094 29.5953 33.1094L28.5715 33.1094V29.3125C28.5715 28.7301 28.1131 28.2578 27.5477 28.2578C26.9824 28.2578 26.5239 28.7301 26.5239 29.3125V33.1094H24.4763V29.3125C24.4763 28.7301 24.0178 28.2578 23.4525 28.2578C22.887 28.2578 22.4287 28.7301 22.4287 29.3125V33.1094H21.4049C20.8404 33.1094 20.3811 32.6363 20.3811 32.0547V28.7493C20.3811 27.1369 19.1795 25.9731 18.4715 25.9723C18.4568 25.9723 17.2492 25.9713 17.2595 25.9713C16.8378 25.9713 16.5109 26.3325 15.6356 26.0245C15.6205 26.0193 15.6053 26.0143 15.59 26.0098C14.7808 25.7063 14.2383 24.9164 14.2383 24.0391C14.2383 23.4451 14.4807 22.8921 14.9208 22.4821C15.2469 22.1783 15.3483 21.6942 15.1729 21.279C14.5879 19.8941 14.2383 17.3047 14.2383 15.6016C14.2383 8.603 20.0558 6.10941 25.5001 6.10941C30.9445 6.10941 36.7619 8.603 36.7619 15.6016C36.7619 17.3047 36.4123 19.8941 35.8273 21.279C35.6518 21.6942 35.7533 22.1783 36.0794 22.4821ZM26.5239 25.0938C26.5239 24.5116 26.9826 24.0391 27.5477 24.0391C28.1128 24.0391 28.5715 24.5116 28.5715 25.0938C28.5715 25.676 28.1128 26.1485 27.5477 26.1485C26.9826 26.1485 26.5239 25.676 26.5239 25.0938ZM22.4287 25.0938C22.4287 24.5116 22.8874 24.0391 23.4525 24.0391C24.0176 24.0391 24.4763 24.5116 24.4763 25.0938C24.4763 25.676 24.0176 26.1485 23.4525 26.1485C22.8874 26.1485 22.4287 25.676 22.4287 25.0938ZM19.69 15.6016H21.0721C22.9492 15.6016 24.4763 17.1748 24.4763 19.1084C24.4763 20.6151 23.5421 21.9574 22.1488 22.4348C20.9743 22.8016 20.5238 23.0929 19.6788 23.0929C17.9087 23.0929 16.2859 21.6174 16.2859 19.583V19.1084C16.2859 17.1748 17.813 15.6016 19.69 15.6016ZM29.9281 15.6016H31.3102C33.1872 15.6016 34.7143 17.1748 34.7143 19.1084V19.583C34.7143 21.9844 32.4347 23.6651 30.234 22.9091L28.851 22.4346C27.4587 21.9556 26.5239 20.619 26.5239 19.1084C26.5239 17.1699 28.0467 15.6016 29.9281 15.6016Z" fill="white"/>
<path d="M32.6667 19.583C32.6667 20.5378 31.7608 21.2099 30.8815 20.908L29.4988 20.4336C28.9442 20.2426 28.5714 19.7102 28.5714 19.1084C28.5715 18.336 29.1782 17.711 29.9281 17.711H31.3102C32.0582 17.711 32.6667 18.3379 32.6667 19.1084V19.583Z" fill="white"/>
<path d="M21.5026 20.4332L20.1188 20.9081C19.2378 21.2105 18.3336 20.5358 18.3336 19.5831V19.1084C18.3336 18.3379 18.942 17.711 19.69 17.711H21.0721C21.8201 17.711 22.4287 18.3379 22.4287 19.1084C22.4287 19.6981 22.0645 20.2407 21.5026 20.4332Z" fill="white"/>
<path d="M12.3566 51.2393C11.7895 51.4897 11.5637 52.198 11.8792 52.7465C12.7537 54.2664 11.6066 55.8907 10.143 55.8907C8.72334 55.8907 7.69605 54.4137 8.24645 52.9969C8.47353 52.4118 8.15471 51.7525 7.56398 51.5873C6.67133 51.3379 6.04783 50.5052 6.04783 49.5625C6.04783 48.3994 6.96639 47.4532 8.09544 47.4532C8.94141 47.4532 9.68817 47.982 9.99797 48.8002C10.2081 49.3553 10.8231 49.6214 11.355 49.3865L38.6437 37.3389C39.2108 37.0885 39.4366 36.3802 39.1211 35.8317C38.2463 34.312 39.3935 32.6875 40.8572 32.6875C42.2795 32.6875 43.3032 34.1672 42.7538 35.5811C42.5265 36.166 42.8453 36.8256 43.4361 36.9909C44.3289 37.2404 44.9524 38.0731 44.9524 39.0157C44.9524 40.1788 44.0338 41.125 42.9048 41.125C42.0588 41.125 41.3119 40.5962 41.0021 39.7779C40.7921 39.223 40.1772 38.9569 39.645 39.1917L12.3566 51.2393Z" fill="white"/>
<path d="M11.3551 39.1917C10.8251 38.9574 10.2085 39.2213 9.99797 39.7782C9.54576 40.9734 8.4851 41.223 7.71427 41.0739C5.51392 40.6476 5.5219 37.5618 7.56408 36.9909C8.15431 36.8258 8.47383 36.1669 8.24655 35.5813C7.69708 34.1669 8.72098 32.6875 10.143 32.6875C11.6188 32.6875 12.748 34.3183 11.8787 35.8325C11.5637 36.3813 11.7902 37.0888 12.3566 37.3388L22.9011 41.9941L20.302 43.1415L11.3551 39.1917Z" fill="white"/>
<path d="M43.4362 51.5873C43.1543 51.6662 42.9185 51.8653 42.7882 52.1346C42.6578 52.4039 42.6453 52.7176 42.7539 52.9971C43.3022 54.4084 42.2823 55.8907 40.8572 55.8907C39.3813 55.8907 38.2521 54.2599 39.1216 52.7457C39.4367 52.1967 39.2098 51.4892 38.6437 51.2394L28.0991 46.5841L30.6981 45.4367L39.645 49.3865C40.1751 49.6207 40.7914 49.357 41.0022 48.8001C41.4543 47.6049 42.5148 47.3551 43.286 47.5043C45.4864 47.9306 45.4785 51.0164 43.4362 51.5873Z" fill="white"/>
</g>
</svg>
