<svg width="74" height="47" viewBox="0 0 74 47" fill="none" xmlns="http://www.w3.org/2000/svg">
<path d="M12.6745 26.2035V17.1479C10.9289 18.3787 6.52146 20.709 2.85583 20.1838V12.8812C5.88325 12.9085 12.1181 10.9448 12.8381 2.87082H20.1628V26.1544L12.6745 26.2035Z" fill="#DB184B"/>
<path d="M64.1814 26.2526V17.1479C65.9269 18.3787 70.3344 20.709 74 20.1838V12.8812C70.9726 12.9085 64.7378 10.9448 64.0177 2.87082H56.6931V26.2035L64.1814 26.2526Z" fill="#DB184B"/>
<path d="M28.3366 32.7975C28.3366 34.4783 27.0376 35.8409 25.4353 35.8409C23.833 35.8409 22.534 34.4783 22.534 32.7975C22.534 31.1167 23.833 29.7541 25.4353 29.7541C27.0376 29.7541 28.3366 31.1167 28.3366 32.7975Z" fill="#DB184B"/>
<path d="M48.5193 32.7975C48.5193 34.4783 49.8183 35.8409 51.4206 35.8409C53.0229 35.8409 54.3219 34.4783 54.3219 32.7975C54.3219 31.1167 53.0229 29.7541 51.4206 29.7541C49.8183 29.7541 48.5193 31.1167 48.5193 32.7975Z" fill="#DB184B"/>
<path d="M35.7298 22.3219C37.5988 24.2008 38.9166 26.5613 39.5383 29.1439C40.1599 31.7266 40.0615 34.4316 39.2537 36.9616C38.4459 39.4917 36.9601 41.7491 34.9594 43.4856C32.9588 45.2222 30.5207 46.3709 27.913 46.8054C25.3053 47.2399 22.629 46.9435 20.1779 45.9487C17.7269 44.9539 15.596 43.2993 14.0194 41.1665C12.4428 39.0337 11.4814 36.5054 11.2409 33.8592C11.0004 31.213 11.49 28.5514 12.6561 26.1667L19.3509 29.4749C18.7897 30.6225 18.5541 31.9034 18.6698 33.1769C18.7856 34.4503 19.2482 35.6671 20.0069 36.6934C20.7657 37.7198 21.7911 38.5161 22.9707 38.9948C24.1502 39.4736 25.4382 39.6162 26.6931 39.4071C27.948 39.198 29.1213 38.6452 30.0841 37.8095C31.0469 36.9738 31.762 35.8875 32.1507 34.6699C32.5394 33.4523 32.5868 32.1506 32.2877 30.9077C31.9885 29.6648 31.3543 28.5289 30.4549 27.6246L35.7298 22.3219Z" fill="#DB184B"/>
<path d="M19.3509 29.4749L12.6561 26.1667H20.1779C20.3147 27.5576 19.6835 28.9517 19.3509 29.4749Z" fill="#DB184B"/>
<path d="M41.1261 22.3219C39.257 24.2008 37.9393 26.5613 37.3176 29.1439C36.6959 31.7266 36.7944 34.4316 37.6022 36.9616C38.41 39.4917 39.8958 41.7491 41.8965 43.4856C43.8971 45.2222 46.3352 46.3709 48.9429 46.8054C51.5506 47.2399 54.2269 46.9435 56.678 45.9487C59.129 44.9539 61.2599 43.2993 62.8365 41.1665C64.4131 39.0337 65.3745 36.5054 65.615 33.8592C65.8555 31.213 65.3658 28.5514 64.1998 26.1667L57.505 29.4749C58.0662 30.6225 58.3018 31.9034 58.1861 33.1769C58.0703 34.4503 57.6077 35.6671 56.8489 36.6934C56.0902 37.7198 55.0648 38.5161 53.8852 38.9948C52.7057 39.4736 51.4177 39.6162 50.1628 39.4071C48.9079 39.198 47.7346 38.6452 46.7718 37.8095C45.809 36.9738 45.0939 35.8875 44.7052 34.6699C44.3164 33.4523 44.2691 32.1506 44.5682 30.9077C44.8674 29.6648 45.5016 28.5289 46.401 27.6246L41.1261 22.3219Z" fill="#DB184B"/>
<path d="M57.505 29.4749L64.1998 26.1667H56.678C56.5412 27.5576 57.1723 28.9517 57.505 29.4749Z" fill="#DB184B"/>
<path d="M9.81864 23.3327V14.2771C8.0731 15.5079 3.66562 17.8382 0 17.313V10.0104C3.02741 10.0377 9.26225 8.07394 9.98228 0H17.3069V23.2836L9.81864 23.3327Z" fill="#4CFFFD"/>
<path d="M61.3256 23.3818V14.2771C63.0711 15.5079 67.4786 17.8382 71.1442 17.313V10.0104C68.1168 10.0377 61.8819 8.07394 61.1619 0H53.8372V23.3327L61.3256 23.3818Z" fill="#4CFFFD"/>
<path d="M25.4807 29.9267C25.4807 31.6075 24.1818 32.97 22.5795 32.97C20.9771 32.97 19.6782 31.6075 19.6782 29.9267C19.6782 28.2458 20.9771 26.8833 22.5795 26.8833C24.1818 26.8833 25.4807 28.2458 25.4807 29.9267Z" fill="#4CFFFD"/>
<path d="M45.6635 29.9267C45.6635 31.6075 46.9624 32.97 48.5648 32.97C50.1671 32.97 51.466 31.6075 51.466 29.9267C51.466 28.2458 50.1671 26.8833 48.5648 26.8833C46.9624 26.8833 45.6635 28.2458 45.6635 29.9267Z" fill="#4CFFFD"/>
<path d="M32.8739 19.4511C34.743 21.33 36.0608 23.6904 36.6824 26.2731C37.3041 28.8558 37.2056 31.5607 36.3979 34.0908C35.5901 36.6209 34.1043 38.8782 32.1036 40.6148C30.1029 42.3514 27.6648 43.5 25.0572 43.9346C22.4495 44.3691 19.7731 44.0727 17.3221 43.0779C14.871 42.0831 12.7402 40.4285 11.1635 38.2957C9.58692 36.1629 8.62555 33.6346 8.38504 30.9884C8.14454 28.3422 8.63421 25.6806 9.80025 23.2959L16.495 26.6041C15.9339 27.7517 15.6982 29.0326 15.814 30.3061C15.9297 31.5795 16.3924 32.7962 17.1511 33.8226C17.9098 34.849 18.9353 35.6453 20.1148 36.124C21.2944 36.6027 22.5823 36.7454 23.8373 36.5363C25.0922 36.3272 26.2655 35.7744 27.2283 34.9387C28.1911 34.103 28.9061 33.0166 29.2949 31.7991C29.6836 30.5815 29.731 29.2798 29.4318 28.0369C29.1326 26.794 28.4985 25.658 27.599 24.7538L32.8739 19.4511Z" fill="#4CFFFD"/>
<path d="M16.495 26.6041L9.80025 23.2959H17.3221C17.4589 24.6867 16.8277 26.0809 16.495 26.6041Z" fill="#4CFFFD"/>
<path d="M38.2703 19.4511C36.4012 21.33 35.0835 23.6904 34.4618 26.2731C33.8401 28.8558 33.9386 31.5607 34.7463 34.0908C35.5541 36.6209 37.04 38.8782 39.0406 40.6148C41.0413 42.3514 43.4794 43.5 46.0871 43.9346C48.6947 44.3691 51.3711 44.0727 53.8221 43.0779C56.2732 42.0831 58.404 40.4285 59.9807 38.2957C61.5573 36.1629 62.5187 33.6346 62.7592 30.9884C62.9997 28.3422 62.51 25.6806 61.344 23.2959L54.6492 26.6041C55.2103 27.7517 55.446 29.0326 55.3302 30.3061C55.2145 31.5795 54.7518 32.7962 53.9931 33.8226C53.2344 34.849 52.2089 35.6453 51.0294 36.124C49.8498 36.6027 48.5619 36.7454 47.3069 36.5363C46.052 36.3272 44.8787 35.7744 43.9159 34.9387C42.9531 34.103 42.2381 33.0166 41.8493 31.7991C41.4606 30.5815 41.4132 29.2798 41.7124 28.0369C42.0116 26.794 42.6457 25.658 43.5452 24.7538L38.2703 19.4511Z" fill="#4CFFFD"/>
<path d="M54.6492 26.6041L61.344 23.2959H53.8221C53.6854 24.6867 54.3165 26.0809 54.6492 26.6041Z" fill="#4CFFFD"/>
<mask id="mask0" mask-type="alpha" maskUnits="userSpaceOnUse" x="0" y="0" width="72" height="45">
<path d="M9.81864 23.3327V14.2771C8.0731 15.5079 3.66562 17.8382 0 17.313V10.0104C3.02741 10.0377 9.26225 8.07394 9.98228 0H17.3069V23.2836L9.81864 23.3327Z" fill="#DB184B"/>
<path d="M61.3256 23.3818V14.2771C63.0711 15.5079 67.4786 17.8382 71.1442 17.313V10.0104C68.1168 10.0377 61.8819 8.07394 61.1619 0H53.8372V23.3327L61.3256 23.3818Z" fill="#DB184B"/>
<path d="M25.4807 29.9267C25.4807 31.6075 24.1818 32.97 22.5795 32.97C20.9771 32.97 19.6782 31.6075 19.6782 29.9267C19.6782 28.2458 20.9771 26.8833 22.5795 26.8833C24.1818 26.8833 25.4807 28.2458 25.4807 29.9267Z" fill="#DB184B"/>
<path d="M45.6635 29.9267C45.6635 31.6075 46.9624 32.97 48.5648 32.97C50.1671 32.97 51.466 31.6075 51.466 29.9267C51.466 28.2458 50.1671 26.8833 48.5648 26.8833C46.9624 26.8833 45.6635 28.2458 45.6635 29.9267Z" fill="#DB184B"/>
<path d="M32.8739 19.4511C34.743 21.33 36.0608 23.6904 36.6824 26.2731C37.3041 28.8558 37.2056 31.5607 36.3979 34.0908C35.5901 36.6209 34.1043 38.8782 32.1036 40.6148C30.1029 42.3514 27.6648 43.5 25.0572 43.9346C22.4495 44.3691 19.7731 44.0727 17.3221 43.0779C14.871 42.0831 12.7402 40.4285 11.1635 38.2957C9.58692 36.1629 8.62555 33.6346 8.38504 30.9884C8.14454 28.3422 8.63421 25.6806 9.80025 23.2959L16.495 26.6041C15.9339 27.7517 15.6982 29.0326 15.814 30.3061C15.9297 31.5795 16.3924 32.7962 17.1511 33.8226C17.9098 34.849 18.9353 35.6453 20.1148 36.124C21.2944 36.6027 22.5823 36.7454 23.8373 36.5363C25.0922 36.3272 26.2655 35.7744 27.2283 34.9387C28.1911 34.103 28.9061 33.0166 29.2949 31.7991C29.6836 30.5815 29.731 29.2798 29.4318 28.0369C29.1326 26.794 28.4985 25.658 27.599 24.7538L32.8739 19.4511Z" fill="#DB184B"/>
<path d="M16.495 26.6041L9.80025 23.2959H17.3221C17.4589 24.6867 16.8277 26.0809 16.495 26.6041Z" fill="#DB184B"/>
<path d="M38.2703 19.4511C36.4012 21.33 35.0835 23.6904 34.4618 26.2731C33.8401 28.8558 33.9386 31.5607 34.7463 34.0908C35.5541 36.6209 37.04 38.8782 39.0406 40.6148C41.0413 42.3514 43.4794 43.5 46.0871 43.9346C48.6947 44.3691 51.3711 44.0727 53.8221 43.0779C56.2732 42.0831 58.404 40.4285 59.9807 38.2957C61.5573 36.1629 62.5187 33.6346 62.7592 30.9884C62.9997 28.3422 62.51 25.6806 61.344 23.2959L54.6492 26.6041C55.2103 27.7517 55.446 29.0326 55.3302 30.3061C55.2145 31.5795 54.7518 32.7962 53.9931 33.8226C53.2344 34.849 52.2089 35.6453 51.0294 36.124C49.8498 36.6027 48.5619 36.7454 47.3069 36.5363C46.052 36.3272 44.8787 35.7744 43.9159 34.9387C42.9531 34.103 42.2381 33.0166 41.8493 31.7991C41.4606 30.5815 41.4132 29.2798 41.7124 28.0369C42.0116 26.794 42.6457 25.658 43.5452 24.7538L38.2703 19.4511Z" fill="#DB184B"/>
<path d="M54.6492 26.6041L61.344 23.2959H53.8221C53.6854 24.6867 54.3165 26.0809 54.6492 26.6041Z" fill="#DB184B"/>
</mask>
<g mask="url(#mask0)">
<path d="M12.6744 26.2035V17.1479C10.9288 18.3787 6.52134 20.709 2.85571 20.1839V12.8812C5.88313 12.9086 12.118 10.9448 12.838 2.87085H20.1627V26.1544L12.6744 26.2035Z" fill="white"/>
<path d="M64.1813 26.2526V17.1479C65.9268 18.3787 70.3343 20.709 73.9999 20.1839V12.8812C70.9725 12.9086 64.7377 10.9448 64.0176 2.87085H56.693V26.2035L64.1813 26.2526Z" fill="white"/>
<path d="M28.3364 32.7975C28.3364 34.4783 27.0375 35.8409 25.4352 35.8409C23.8328 35.8409 22.5339 34.4783 22.5339 32.7975C22.5339 31.1167 23.8328 29.7541 25.4352 29.7541C27.0375 29.7541 28.3364 31.1167 28.3364 32.7975Z" fill="white"/>
<path d="M48.5192 32.7975C48.5192 34.4783 49.8181 35.8409 51.4205 35.8409C53.0228 35.8409 54.3217 34.4783 54.3217 32.7975C54.3217 31.1167 53.0228 29.7541 51.4205 29.7541C49.8181 29.7541 48.5192 31.1167 48.5192 32.7975Z" fill="white"/>
<path d="M35.7297 22.3219C37.5987 24.2008 38.9165 26.5613 39.5381 29.144C40.1598 31.7266 40.0614 34.4316 39.2536 36.9617C38.4458 39.4918 36.96 41.7491 34.9593 43.4857C32.9586 45.2222 30.5205 46.3709 27.9129 46.8054C25.3052 47.2399 22.6288 46.9435 20.1778 45.9488C17.7268 44.954 15.5959 43.2993 14.0193 41.1665C12.4426 39.0338 11.4813 36.5054 11.2408 33.8592C11.0003 31.2131 11.4899 28.5514 12.656 26.1667L19.3507 29.475C18.7896 30.6226 18.5539 31.9035 18.6697 33.1769C18.7854 34.4504 19.2481 35.6671 20.0068 36.6935C20.7656 37.7198 21.791 38.5161 22.9706 38.9949C24.1501 39.4736 25.4381 39.6162 26.693 39.4071C27.9479 39.198 29.1212 38.6452 30.084 37.8095C31.0468 36.9738 31.7619 35.8875 32.1506 34.6699C32.5393 33.4523 32.5867 32.1506 32.2875 30.9077C31.9884 29.6648 31.3542 28.5289 30.4547 27.6247L35.7297 22.3219Z" fill="white"/>
<path d="M19.3507 29.475L12.656 26.1667H20.1778C20.3146 27.5576 19.6834 28.9517 19.3507 29.475Z" fill="white"/>
<path d="M41.126 22.3219C39.2569 24.2008 37.9392 26.5613 37.3175 29.144C36.6958 31.7266 36.7943 34.4316 37.6021 36.9617C38.4098 39.4918 39.8957 41.7491 41.8963 43.4857C43.897 45.2222 46.3351 46.3709 48.9428 46.8054C51.5505 47.2399 54.2268 46.9435 56.6778 45.9488C59.1289 44.954 61.2598 43.2993 62.8364 41.1665C64.413 39.0338 65.3744 36.5054 65.6149 33.8592C65.8554 31.2131 65.3657 28.5514 64.1997 26.1667L57.5049 29.475C58.066 30.6226 58.3017 31.9035 58.186 33.1769C58.0702 34.4504 57.6076 35.6671 56.8488 36.6935C56.0901 37.7198 55.0646 38.5161 53.8851 38.9949C52.7056 39.4736 51.4176 39.6162 50.1627 39.4071C48.9077 39.198 47.7344 38.6452 46.7716 37.8095C45.8088 36.9738 45.0938 35.8875 44.7051 34.6699C44.3163 33.4523 44.2689 32.1506 44.5681 30.9077C44.8673 29.6648 45.5014 28.5289 46.4009 27.6247L41.126 22.3219Z" fill="white"/>
<path d="M57.5049 29.475L64.1997 26.1667H56.6778C56.5411 27.5576 57.1722 28.9517 57.5049 29.475Z" fill="white"/>
</g>
</svg>
