<svg width="60" height="60" viewBox="0 0 60 60" fill="none" xmlns="http://www.w3.org/2000/svg">
<path d="M32 4C16.5607 4 4 16.5607 4 32C4 47.4393 16.5607 60 32 60C47.4393 60 60 47.4393 60 32C60 16.5607 47.4393 4 32 4ZM14.8632 26.2766C14.5703 25.4191 15.028 24.4866 15.8855 24.1938C16.7431 23.9009 17.6754 24.3587 17.9683 25.216C18.5051 26.7877 19.9818 27.8436 21.6426 27.8436C23.3024 27.8436 24.7786 26.7886 25.3161 25.2185C25.6095 24.3614 26.5423 23.9042 27.3997 24.1977C28.2569 24.4912 28.7139 25.424 28.4205 26.2812C27.4287 29.1785 24.7049 31.125 21.6426 31.125C18.5782 31.125 15.8537 29.1766 14.8632 26.2766ZM42.7056 44.0735C42.4425 44.2303 42.1531 44.3049 41.8675 44.3049C41.3084 44.3049 40.7635 44.019 40.4565 43.5037C38.6906 40.5398 35.4502 38.6986 32.0001 38.6986C28.5597 38.6986 25.3241 40.5319 23.5559 43.4832C23.0902 44.2604 22.0827 44.5133 21.3054 44.0473C20.5282 43.5817 20.2755 42.574 20.7413 41.7968C23.0988 37.8618 27.4129 35.4173 32.0001 35.4173C36.6003 35.4173 40.9207 37.8722 43.2754 41.8242C43.739 42.6027 43.484 43.6097 42.7056 44.0735ZM49.1454 26.2813C48.1535 29.1785 45.4297 31.125 42.3675 31.125C39.303 31.125 36.5785 29.1766 35.5882 26.2767C35.2952 25.4192 35.7529 24.4867 36.6104 24.1939C37.4682 23.901 38.4003 24.3588 38.6932 25.2161C39.23 26.7878 40.7067 27.8438 42.3677 27.8438C44.0273 27.8438 45.5035 26.7887 46.0411 25.2186C46.3348 24.3615 47.2679 23.9046 48.1247 24.1978C48.9819 24.4913 49.4389 25.424 49.1454 26.2813Z" fill="#DB184B"/>
<path d="M28 0C12.5607 0 0 12.5607 0 28C0 43.4393 12.5607 56 28 56C43.4393 56 56 43.4393 56 28C56 12.5607 43.4393 0 28 0ZM10.8632 22.2766C10.5703 21.4191 11.028 20.4866 11.8855 20.1938C12.7431 19.9009 13.6754 20.3587 13.9683 21.216C14.5051 22.7877 15.9818 23.8436 17.6426 23.8436C19.3024 23.8436 20.7786 22.7886 21.3161 21.2185C21.6095 20.3614 22.5423 19.9042 23.3997 20.1977C24.2569 20.4912 24.7139 21.424 24.4205 22.2812C23.4287 25.1785 20.7049 27.125 17.6426 27.125C14.5782 27.125 11.8537 25.1766 10.8632 22.2766ZM38.7056 40.0735C38.4425 40.2303 38.1531 40.3049 37.8675 40.3049C37.3084 40.3049 36.7635 40.019 36.4565 39.5037C34.6906 36.5398 31.4502 34.6986 28.0001 34.6986C24.5597 34.6986 21.3241 36.5319 19.5559 39.4832C19.0902 40.2604 18.0827 40.5133 17.3054 40.0473C16.5282 39.5817 16.2755 38.574 16.7413 37.7968C19.0988 33.8618 23.4129 31.4173 28.0001 31.4173C32.6003 31.4173 36.9207 33.8722 39.2754 37.8242C39.739 38.6027 39.484 39.6097 38.7056 40.0735ZM45.1454 22.2813C44.1535 25.1785 41.4297 27.125 38.3675 27.125C35.303 27.125 32.5785 25.1766 31.5882 22.2767C31.2952 21.4192 31.7529 20.4867 32.6104 20.1939C33.4682 19.901 34.4003 20.3588 34.6932 21.2161C35.23 22.7878 36.7067 23.8438 38.3677 23.8438C40.0273 23.8438 41.5035 22.7887 42.0411 21.2186C42.3348 20.3615 43.2679 19.9046 44.1247 20.1978C44.9819 20.4913 45.4389 21.424 45.1454 22.2813Z" fill="#4CFFFD"/>
<mask id="mask0" mask-type="alpha" maskUnits="userSpaceOnUse" x="0" y="0" width="56" height="56">
<path d="M28 0C12.5607 0 0 12.5607 0 28C0 43.4393 12.5607 56 28 56C43.4393 56 56 43.4393 56 28C56 12.5607 43.4393 0 28 0ZM10.8632 22.2766C10.5703 21.4191 11.028 20.4866 11.8855 20.1938C12.7431 19.9009 13.6754 20.3587 13.9683 21.216C14.5051 22.7877 15.9818 23.8436 17.6426 23.8436C19.3024 23.8436 20.7786 22.7886 21.3161 21.2185C21.6095 20.3614 22.5423 19.9042 23.3997 20.1977C24.2569 20.4912 24.7139 21.424 24.4205 22.2812C23.4287 25.1785 20.7049 27.125 17.6426 27.125C14.5782 27.125 11.8537 25.1766 10.8632 22.2766ZM38.7056 40.0735C38.4425 40.2303 38.1531 40.3049 37.8675 40.3049C37.3084 40.3049 36.7635 40.019 36.4565 39.5037C34.6906 36.5398 31.4502 34.6986 28.0001 34.6986C24.5597 34.6986 21.3241 36.5319 19.5559 39.4832C19.0902 40.2604 18.0827 40.5133 17.3054 40.0473C16.5282 39.5817 16.2755 38.574 16.7413 37.7968C19.0988 33.8618 23.4129 31.4173 28.0001 31.4173C32.6003 31.4173 36.9207 33.8722 39.2754 37.8242C39.739 38.6027 39.484 39.6097 38.7056 40.0735ZM45.1454 22.2813C44.1535 25.1785 41.4297 27.125 38.3675 27.125C35.303 27.125 32.5785 25.1766 31.5882 22.2767C31.2952 21.4192 31.7529 20.4867 32.6104 20.1939C33.4682 19.901 34.4003 20.3588 34.6932 21.2161C35.23 22.7878 36.7067 23.8438 38.3677 23.8438C40.0273 23.8438 41.5035 22.7887 42.0411 21.2186C42.3348 20.3615 43.2679 19.9046 44.1247 20.1978C44.9819 20.4913 45.4389 21.424 45.1454 22.2813Z" fill="white"/>
</mask>
<g mask="url(#mask0)">
<path d="M32 4C16.5607 4 4 16.5607 4 32C4 47.4393 16.5607 60 32 60C47.4393 60 60 47.4393 60 32C60 16.5607 47.4393 4 32 4ZM14.8632 26.2766C14.5703 25.4191 15.028 24.4866 15.8855 24.1938C16.7431 23.9009 17.6754 24.3587 17.9683 25.216C18.5051 26.7877 19.9818 27.8436 21.6426 27.8436C23.3024 27.8436 24.7786 26.7886 25.3161 25.2185C25.6095 24.3614 26.5423 23.9042 27.3997 24.1977C28.2569 24.4912 28.7139 25.424 28.4205 26.2812C27.4287 29.1785 24.7049 31.125 21.6426 31.125C18.5782 31.125 15.8537 29.1766 14.8632 26.2766ZM42.7056 44.0735C42.4425 44.2303 42.1531 44.3049 41.8675 44.3049C41.3084 44.3049 40.7635 44.019 40.4565 43.5037C38.6906 40.5398 35.4502 38.6986 32.0001 38.6986C28.5597 38.6986 25.3241 40.5319 23.5559 43.4832C23.0902 44.2604 22.0827 44.5133 21.3054 44.0473C20.5282 43.5817 20.2755 42.574 20.7413 41.7968C23.0988 37.8618 27.4129 35.4173 32.0001 35.4173C36.6003 35.4173 40.9207 37.8722 43.2754 41.8242C43.739 42.6027 43.484 43.6097 42.7056 44.0735ZM49.1454 26.2813C48.1535 29.1785 45.4297 31.125 42.3675 31.125C39.303 31.125 36.5785 29.1766 35.5882 26.2767C35.2952 25.4192 35.7529 24.4867 36.6104 24.1939C37.4682 23.901 38.4003 24.3588 38.6932 25.2161C39.23 26.7878 40.7067 27.8438 42.3677 27.8438C44.0273 27.8438 45.5035 26.7887 46.0411 25.2186C46.3348 24.3615 47.2679 23.9046 48.1247 24.1978C48.9819 24.4913 49.4389 25.424 49.1454 26.2813Z" fill="white"/>
</g>
</svg>
